<?xml version="1.0" encoding="utf-8"?>
<!-- Generator: Adobe Illustrator 24.0.1, SVG Export Plug-In . SVG Version: 6.00 Build 0)  -->
<svg version="1.1" id="Capa_1" xmlns="http://www.w3.org/2000/svg" xmlns:xlink="http://www.w3.org/1999/xlink" x="0px" y="0px"
	 viewBox="0 0 1369.3 523.5" style="enable-background:new 0 0 1369.3 523.5;" xml:space="preserve">
<style type="text/css">
	.st0{fill:#D8A53F;}
	.st1{fill:#D09939;}
	.st2{fill:#ADADAD;}
	.st3{fill:#181717;}
	.st4{fill:#171717;}
	.st5{fill:#191818;}
	.st6{fill:#EEBB63;}
	.st7{fill:#441605;}
	.st8{fill:#451706;}
	.st9{fill:#481906;}
	.st10{fill:#E71A16;}
	.st11{fill:#E61915;}
	.st12{fill:#C68D2D;}
	.st13{fill:#ECE6E3;}
	.st14{fill:#FFFFFF;}
</style>
<g>
	<path class="st0" d="M88.7,284.9c2-13.6,5.6-26.8,11.6-39.3c7-14.8,16-28.5,26.2-41.2c13.2-16.3,19.6-35.3,23.8-55.4
		c3.8-18.3,6.6-36.9,13.1-54.6c8.9-24.2,26.3-40.3,48-52.6c16.6-9.4,34.5-14.4,53.8-13.6c2.4,0.1,4.9,0,7.2,1
		c0.1,1.1,0.6,1.8,1.8,2.1c10.5,2.7,19,9.1,28,14.7c18.1,11.5,31.4,27.7,42.4,45.4c11.1,17.8,21.6,36.2,28.7,56.3
		c5.4,15.5,11.1,30.9,14.2,47.1c2.1,11.2,4,22.4,4.8,33.8c0.8,11,0.5,22.1-0.1,33.1c-0.4,7.2-1.7,14.4-2.7,21.5
		c-2.1,14.9-8.8,28.1-16.3,40.9c-8.9,15.1-20.6,27.8-34.6,38.1c-18.9,13.9-39.5,24.5-62.5,30.6c-16.3,4.4-32.7,7.6-49.5,7.7
		c-16.7,0.1-33.5-1.3-49.4-7.2c-10.9-4.1-21.3-9.3-31.1-15.7c-11.2-7.3-20-17.1-28.2-27.3c-6.7-8.3-12.4-17.5-16.4-27.3
		c-4.5-11.2-8.2-22.9-8.9-35.2c-0.2-2.9-1.3-4-4.1-2.8L88.7,284.9z M317.1,304.7c0.7-1,1.5-1.9,2.2-2.9c4.8-7.4,3.5-18-2.8-23.7
		c-5.5-5-13.7-5.3-19.5-0.6c-7.7,6.1-8.5,17.6-1.9,26.6c-4.6,4.2-2.8,10,1.5,12c5.5,2.6,11.2,3.3,17.1,0.9
		C320.3,314.3,321.4,310.6,317.1,304.7z M220.6,303.6c2.9-2.9,4.8-6.4,5.5-10.4c1.5-7.4-2.4-15.8-8.7-19.1
		c-5.6-2.9-12.6-1.8-17.3,2.7c-7.1,6.9-7.2,18.2-0.1,26.2c-4.7,7.1-4.3,11,2,13.6c4.7,2,9.7,2.5,14.7,0.8
		C225.3,314.6,226.5,310.3,220.6,303.6z M171.3,152.5c0,2.7-0.2,4.8,0,6.9c0.8,9.5,5,12.9,14.3,11.9c4.1-0.5,6.9-3.2,9.4-6
		c8.9-10.4,8.7-22.6,6.1-34.9c-0.5-2.4-2.2-5.2-5.3-5.9c-6.2-1.5-15.8,2.1-18.8,7.5C173.3,138.4,170.5,145.3,171.3,152.5z M188,95.7
		c0,1.2-0.1,2.4,0,3.6c1.1,8.6,10.7,14.5,17.6,10.7c8.8-4.7,11.4-19.9,4.6-27.4c-1.7-1.9-3.9-3.2-6.8-3.4
		C194.9,78.9,188,86.1,188,95.7z M258.2,331.4c9.2-0.1,16.6-6.3,17.5-14.6c0.3-2.4,0.1-4.7-2.9-5.2c-2.6-0.5-3.8,1.2-4.4,3.4
		c-0.5,2-1.1,4-2.6,5.5c-6.1,6.1-15.3,3.7-17.8-4.9c-0.8-2.7-1.8-5.2-5.2-4.2s-2.8,3.9-2.1,6.5C243.2,326.4,249.8,331.5,258.2,331.4
		z M200.5,218.2c2.1,0,4,0.2,5.8-0.8c1.5-0.9,3.5-1.6,3.1-3.6c-0.5-2.2-2.7-1.9-4.3-1.7c-3.7,0.4-7.4,1.4-11.2,0
		c-0.9-0.3-2.1,0-2.5,1.3c-0.4,1.4,0.1,2.4,1.4,3C195.2,217.5,197.8,218.5,200.5,218.2z M373.2,273.5c-1.7,0-3.5-0.1-5.2,0
		c-1.3,0.1-3-0.5-3.4,1.4c-0.3,1.6,0.9,2.7,2.1,3.2c4.5,2.2,9,2.2,13.4-0.3c1-0.6,2-1.6,1.7-3c-0.3-1.6-1.7-1.4-2.9-1.4
		C377,273.5,375.1,273.5,373.2,273.5z M292.7,169.2c-1.9,0-3.8,0-5.7,0c-1.4,0-3,0-3.4,1.6s1.3,2.9,2.2,3c3.8,0.6,7.6,2.6,11.5,0.5
		c1.7-0.9,4.5-1.6,4-3.9c-0.5-2.3-3.2-1-5-1.2C295.1,169,293.9,169.2,292.7,169.2z M361.4,207.7c2,0.2,4.2,0.2,6.2-1.1
		c1.3-0.8,3.1-1.7,2.4-3.5c-0.6-1.8-2.5-1.8-4-1.3c-1.7,0.6-3.4,1-5.1,0.5c-2.5-0.7-5.1-1.6-7.4,0.3c-0.9,0.7-0.9,2-0.1,2.8
		C355.5,207.8,358.3,207.9,361.4,207.7z M125.2,310c1.6,0,3.2,0.1,4.6-0.7c1.6-0.9,4-1.7,3.2-4c-0.6-2-3-1.9-4.5-1.4
		c-3.1,1-6.1,0.4-9.1-0.1c-1.3-0.2-2.9-0.3-3.3,1.6c-0.3,1.7,0.8,2.6,2.2,3.1C120.6,309.4,122.8,310.4,125.2,310z M277.7,244.3
		c2.5,0.3,4.9-0.3,6.9-1.7c0.9-0.6,2.8-1.4,2-3.1c-0.7-1.5-2.2-1.4-3.6-1.3c-2,0.1-3.8,1.3-6,0.6c-2.5-0.8-6.3-2.1-7,1.4
		c-0.7,4.1,3.8,3.3,6.3,4.1C276.6,244.4,277.2,244.3,277.7,244.3z M347.5,339.3c2.3,0.3,4.5-0.2,6.4-1.7c1.1-0.8,2.4-1.8,1.8-3.4
		c-0.6-1.7-2.3-1.1-3.6-1.1c-2-0.1-3.8,1.4-6.1,0.7c-2.5-0.8-6.4-2.3-7,1.1c-0.6,3.6,3.9,3.4,6.5,4.3
		C346.1,339.5,346.8,339.3,347.5,339.3z M141.6,247.5c2.4,0.3,4.4-1,6.6-1.3c1.5-0.2,3.1-1.4,2.7-3.2c-0.4-1.9-2.3-1.9-3.9-1.7
		c-2.5,0.4-4.9,1.4-7.6,0.4c-1.8-0.7-4.7-1.6-5.4,0.9c-0.8,3,2.1,3.9,4.5,4.6C139.5,247.4,140.6,247.4,141.6,247.5z M267.5,370.6
		c-2.2,0-4.5,0-6.7,0c-0.8,0-1.8-0.2-2.2,0.9c-0.4,1,0.4,1.6,1,2.2c3,3.1,13,3.4,15.8,0.4c0.5-0.6,1-1.5,0.9-2.3
		c-0.1-1-1.1-1.1-2-1.1C271.9,370.6,269.7,370.6,267.5,370.6z M254.6,79.3c3.3,0.2,5.5,0,7.7-0.8c1.5-0.6,3.2-1.2,2.6-3.2
		c-0.5-1.6-2.3-2.4-3.8-1.9c-2.9,0.9-5.8,0.5-8.7,0.8c-1.5,0.1-4.1-1.2-4.2,1.4c-0.1,1.8,1.9,3.2,3.9,3.7
		C253.2,79.5,254.4,79.3,254.6,79.3z M313.8,121.2c1.9,0.1,3.9,0,5.5-1c1.4-0.9,3.5-1.7,2.6-3.8c-0.7-1.9-2.5-1.1-4.1-0.8
		c-2,0.4-4.2,0.5-6.2,0.3c-2.3-0.3-5.6-1.9-6.2,1.1c-0.6,3.2,3.4,3.1,5.7,4.1C312,121.3,313,121.1,313.8,121.2z M242.6,139.1
		c0-0.1,0-0.1,0-0.2c-1.6,0-3.1,0-4.7,0c-1,0-2.2-0.1-2.6,1.1c-0.5,1.3,0.6,1.8,1.4,2.4c2.7,2.2,11.6,2.4,14.3,0.2
		c0.9-0.8,1.8-1.8,1.3-3.1c-0.5-1.4-1.6-1.3-3-1.1C247.1,138.8,244.8,138.9,242.6,139.1z M180.4,353.9c-1.9,0-3.8,0-5.7,0
		c-1.2,0-2.6-0.3-3.1,1.2c-0.5,1.7,0.8,2.6,2.1,3.1c4.2,1.4,8.4,1.7,12.5-0.4c1.1-0.5,2.4-1.4,2.2-2.6c-0.3-2-2.2-1.2-3.4-1.3
		C183.5,353.8,181.9,353.9,180.4,353.9z"/>
	<path class="st1" d="M88.7,285.1c2.8-1.2,3.9-0.1,4.1,2.8c0.7,12.3,4.4,24,8.9,35.2c4,9.8,9.7,19,16.4,27.3
		c8.2,10.2,17,19.9,28.2,27.3c9.8,6.4,20.1,11.6,31.1,15.7c16,6,32.7,7.4,49.4,7.2c16.7-0.1,33.2-3.3,49.5-7.7
		c22.9-6.1,43.6-16.6,62.5-30.6c14-10.3,25.7-23,34.6-38.1c7.5-12.8,14.2-26,16.3-40.9c1-7.2,2.3-14.3,2.7-21.5
		c0.6-11,0.9-22.1,0.1-33.1c-0.8-11.4-2.7-22.6-4.8-33.8c-3.1-16.2-8.8-31.5-14.2-47.1c-7.1-20.2-17.5-38.5-28.7-56.3
		c-11.1-17.7-24.3-34-42.4-45.4c-8.9-5.7-17.5-12-28-14.7c-1.2-0.3-1.7-1-1.8-2.1c19,1.2,36.1,8,52,18.1
		c22.4,14.2,38.3,34.5,51.8,56.8c22.9,38,38.7,79.1,47.8,122.6c7.2,34.3,7.5,68.6-5.3,102c-0.3,0.8-0.3,1.7-0.5,2.6
		c-1.8,1.8-2.5,4.1-2.7,6.6c-6,9.9-11.4,20.1-18.7,29.1c-18.3,22.5-41.2,38.7-67.9,49.8c-9,3.8-18.3,6.4-27.5,9.5
		c-2.5,0.6-5,1.2-7.5,1.8c-6.8,1.1-13.6,2.2-20.5,3.2c-16.3,2.4-32.7,2.3-49.1,0.9c-2.3-1.1-4.8-1-7.2-1.1
		c-13.4-2.9-26.7-6-39.3-11.6c-40.1-18-69.6-46.2-83.9-88.6c-4.3-12.8-5.5-26.1-5.4-39.5C88.6,289.3,88.7,287.2,88.7,285.1z"/>
	<path class="st2" d="M308.4,466.9c19.4-0.7,38.7-0.2,57.8,3.8c3,0.6,5.7,1.8,6,4.9c0.3,3-2.7,3.7-4.9,4.5
		c-10,3.7-20.5,5.6-31.1,6.3c-15.2,1.1-29.9-1.6-44.8-4.4c-5.8-1.1-11.8-1.2-17.8-1.7c-18.3-1.5-36.5-0.4-54.8,1.6
		c-15.5,1.7-31.1,3.4-46.8,2.4c-6.7-0.4-13.4-1.3-19.9-3.4c-3.3-1.1-7.1-3.2-6.7-7c0.4-4.2,3.8-6.8,8.3-7.3
		c16.3-1.9,32.6-0.8,48.9-1c2,0,4.1,0.7,6.1,1c-0.7,2.7-0.7,5,1.7,7c5.2,4.4,20.5,3.5,24.8-1.5c0.5-0.6,0.5-1.6,0.7-2.4
		c3.2,1.8,6.4-0.1,9.5,0c12.1,0.2,24.2,0.3,36.1-2.1c-0.2,2-1.2,4.4,1.2,5.5c6.5,3,13.2,5.5,20.4,2.5
		C307.1,474.1,310.1,471.7,308.4,466.9z"/>
	<path class="st3" d="M88.7,285.1c0,2.1-0.1,4.1-0.1,6.2c-24.6-4.6-45.5-15.6-60.8-36c-1.6-2.2-3.2-3.5-6.3-3.7
		c-7.3-0.4-12.2-5.1-13.6-12.2c-1-5.2,0.7-9.2,5.2-12c4.6-2.9,9-2.2,13,1.1c1.9,1.6,3.5,3,6.3,2.9c2.5-0.1,3.9,1.8,4.4,4.3
		c0.7,3.7-0.1,7.1-2.4,9.8c-3,3.5-1.8,5.9,0.7,8.9c12,14.4,27.4,23.3,45.2,28.4c2.8,0.8,5.4,2.3,8.4,2.1
		C88.7,284.9,88.7,285.1,88.7,285.1z"/>
	<path class="st4" d="M415.6,337.8c0.2-2.5,0.9-4.7,2.7-6.6c16.3,14.7,27.7,32.4,31.4,54.3c0.4,2.6,2,3.3,3.7,4.4
		c5.8,3.6,8.4,9.5,7.2,16c-1,5.2-4.8,9-9.6,9.6c-5.3,0.7-9.8-1.9-12.1-7c-0.6-1.4-0.6-2.9-2.1-4c-5.4-3.8-5.6-7.1-1-11.9
		c0.6-0.6,1.2-1.4,1.9-1.7c6.5-2.3,5.5-6.8,4-11.9C437,362.6,428,349.1,415.6,337.8z"/>
	<path class="st5" d="M308.4,466.9c1.7,4.8-1.3,7.2-5,8.7c-7.2,3-13.9,0.5-20.4-2.5c-2.5-1.1-1.5-3.5-1.2-5.5
		c5.3-12.8,8.7-26.3,12.2-39.6c2.5-0.6,5-1.2,7.5-1.8c-3.4,12-6.8,24-10.3,36.6C297.5,462,303.8,461.5,308.4,466.9z"/>
	<path class="st5" d="M236.1,469.8c-0.2,0.8-0.2,1.8-0.7,2.4c-4.3,5-19.6,5.9-24.8,1.5c-2.4-2-2.4-4.4-1.7-7c4.9-4.1,4.9-4.1,17-4.3
		c-2.9-10.5-5.8-20.9-8.7-31.3c2.4,0.1,4.9,0,7.2,1.1C227.6,444.9,231.2,457.5,236.1,469.8z"/>
	<path class="st6" d="M171.3,152.5c-0.8-7.2,2.1-14.1,5.7-20.6c3-5.4,12.6-9,18.8-7.5c3.2,0.8,4.8,3.5,5.3,5.9
		c2.6,12.4,2.8,24.5-6.1,34.9c-2.5,2.9-5.3,5.6-9.4,6c-9.3,1.1-13.5-2.4-14.3-11.9C171.1,157.3,171.3,155.2,171.3,152.5z"/>
	<path class="st7" d="M200,303.1c-7.1-8.1-7-19.4,0.1-26.2c4.7-4.5,11.7-5.6,17.3-2.7c6.3,3.3,10.2,11.7,8.7,19.1
		c-0.8,4-2.7,7.5-5.5,10.4C213.8,301,206.9,301.7,200,303.1z M206.7,290.5c2.8-0.4,4.2-2.4,4.1-5c-0.1-2.6-1.5-4.7-4.5-4.7
		c-3.3,0-4.6,2.4-4.4,5.2C202.1,288.6,203.7,290.4,206.7,290.5z"/>
	<path class="st8" d="M295,304c-6.6-9-5.7-20.4,1.9-26.6c5.8-4.7,14-4.4,19.5,0.6c6.4,5.8,7.6,16.3,2.8,23.7c-0.7,1-1.5,1.9-2.2,2.9
		C309.8,300.5,302.5,301.2,295,304z M305.7,287.2c-0.4-2.6-1.5-4.8-4.4-4.9c-2.9-0.2-4.5,2-4.7,4.6c-0.2,2.9,1.5,5.2,4.5,5.3
		C304.1,292.2,305.2,289.9,305.7,287.2z"/>
	<path class="st6" d="M188,95.7c0-9.6,6.9-16.8,15.5-16.4c2.9,0.1,5.1,1.5,6.8,3.4c6.8,7.5,4.1,22.7-4.6,27.4
		c-6.9,3.7-16.5-2.1-17.6-10.7C187.9,98.1,188,96.9,188,95.7z"/>
	<path class="st9" d="M258.2,331.4c-8.4,0.1-15-5-17.4-13.6c-0.7-2.6-1.4-5.5,2.1-6.5c3.4-1,4.4,1.5,5.2,4.2
		c2.5,8.6,11.7,11.1,17.8,4.9c1.5-1.6,2.1-3.5,2.6-5.5c0.6-2.2,1.8-3.9,4.4-3.4c3,0.6,3.1,2.8,2.9,5.2
		C274.8,325.1,267.5,331.2,258.2,331.4z"/>
	<path class="st10" d="M200,303.1c6.9-1.3,13.8-2,20.6,0.5c5.9,6.7,4.7,11-3.9,13.9c-5,1.7-10,1.1-14.7-0.8
		C195.8,314.1,195.3,310.1,200,303.1z"/>
	<path class="st11" d="M295,304c7.4-2.9,14.8-3.5,22,0.7c4.3,5.9,3.3,9.6-3.4,12.3c-5.8,2.3-11.5,1.6-17.1-0.9
		C292.2,314.1,290.4,308.2,295,304z"/>
	<path class="st12" d="M200.5,218.2c-2.7,0.2-5.2-0.7-7.8-1.9c-1.3-0.6-1.7-1.6-1.4-3c0.4-1.3,1.6-1.6,2.5-1.3
		c3.8,1.4,7.5,0.3,11.2,0c1.6-0.2,3.9-0.5,4.3,1.7c0.4,2-1.6,2.8-3.1,3.6C204.5,218.4,202.6,218.2,200.5,218.2z"/>
	<path class="st12" d="M373.2,273.5c1.9,0,3.8,0,5.7,0c1.2,0,2.6-0.2,2.9,1.4c0.3,1.4-0.7,2.4-1.7,3c-4.4,2.5-8.9,2.5-13.4,0.3
		c-1.2-0.6-2.5-1.7-2.1-3.2c0.4-1.9,2.1-1.4,3.4-1.4C369.8,273.5,371.5,273.5,373.2,273.5z"/>
	<path class="st12" d="M292.7,169.2c1.2,0,2.4-0.1,3.6,0c1.8,0.2,4.5-1.1,5,1.2s-2.3,3-4,3.9c-3.9,2.1-7.7,0.1-11.5-0.5
		c-1-0.2-2.6-1.4-2.2-3s2-1.6,3.4-1.6C288.9,169.2,290.8,169.2,292.7,169.2z"/>
	<path class="st12" d="M361.4,207.7c-3.1,0.2-5.9,0.1-8-2.3c-0.8-0.9-0.7-2.1,0.1-2.8c2.3-2,4.9-1.1,7.4-0.3
		c1.7,0.5,3.4,0.1,5.1-0.5c1.5-0.5,3.4-0.6,4,1.3c0.7,1.9-1.1,2.7-2.4,3.5C365.7,207.9,363.4,207.9,361.4,207.7z"/>
	<path class="st12" d="M125.2,310c-2.4,0.3-4.7-0.7-7-1.5c-1.4-0.5-2.5-1.3-2.2-3.1c0.4-1.9,2-1.8,3.3-1.6c3.1,0.5,6,1.1,9.1,0.1
		c1.5-0.5,3.9-0.7,4.5,1.4c0.7,2.4-1.6,3.1-3.2,4C128.5,310.2,126.9,310.1,125.2,310z"/>
	<path class="st12" d="M277.7,244.3c-0.5,0-1.1,0.1-1.5,0c-2.5-0.8-7-0.1-6.3-4.1c0.6-3.5,4.5-2.2,7-1.4c2.2,0.7,4-0.5,6-0.6
		c1.4-0.1,2.9-0.2,3.6,1.3c0.8,1.8-1.1,2.5-2,3.1C282.6,244,280.2,244.6,277.7,244.3z"/>
	<path class="st12" d="M347.5,339.3c-0.7,0-1.4,0.2-2.1,0c-2.6-0.9-7.1-0.8-6.5-4.3c0.6-3.4,4.5-1.9,7-1.1c2.2,0.7,4-0.8,6.1-0.7
		c1.3,0,3-0.6,3.6,1.1c0.6,1.6-0.7,2.5-1.8,3.4C352,339,349.9,339.5,347.5,339.3z"/>
	<path class="st12" d="M141.6,247.5c-1-0.1-2.1-0.1-3.1-0.4c-2.4-0.7-5.3-1.6-4.5-4.6c0.7-2.5,3.6-1.6,5.4-0.9
		c2.7,1,5.1,0.1,7.6-0.4c1.5-0.3,3.4-0.2,3.9,1.7c0.4,1.8-1.2,3-2.7,3.2C146,246.5,144,247.9,141.6,247.5z"/>
	<path class="st12" d="M267.5,370.6c2.2,0,4.5,0,6.7,0c0.9,0,1.9,0.1,2,1.1c0,0.8-0.4,1.7-0.9,2.3c-2.8,3-12.8,2.8-15.8-0.4
		c-0.6-0.6-1.4-1.2-1-2.2s1.4-0.8,2.2-0.9C263,370.6,265.2,370.6,267.5,370.6z"/>
	<path class="st12" d="M254.6,79.3c-0.2,0-1.4,0.2-2.6,0c-2-0.4-4-1.9-3.9-3.7c0.1-2.6,2.7-1.2,4.2-1.4c2.9-0.3,5.8,0.1,8.7-0.8
		c1.5-0.5,3.3,0.3,3.8,1.9c0.6,2-1,2.6-2.6,3.2C260.1,79.3,257.9,79.5,254.6,79.3z"/>
	<path class="st12" d="M313.8,121.2c-0.9-0.1-1.8,0.1-2.6-0.2c-2.2-0.9-6.3-0.8-5.7-4.1c0.6-3,3.9-1.4,6.2-1.1
		c2,0.3,4.2,0.1,6.2-0.3c1.6-0.3,3.3-1.1,4.1,0.8c0.9,2.2-1.2,2.9-2.6,3.8C317.7,121.2,315.8,121.3,313.8,121.2z"/>
	<path class="st12" d="M242.6,139.1c2.2-0.2,4.5-0.2,6.6-0.7c1.4-0.3,2.5-0.3,3,1.1c0.4,1.3-0.4,2.3-1.3,3.1
		c-2.7,2.2-11.5,2-14.3-0.2c-0.8-0.7-1.8-1.2-1.4-2.4c0.5-1.2,1.6-1.1,2.6-1.1c1.6,0,3.1,0,4.7,0C242.6,139,242.6,139,242.6,139.1z"
		/>
	<path class="st12" d="M180.4,353.9c1.6,0,3.1-0.1,4.7,0c1.2,0.1,3.1-0.7,3.4,1.3c0.2,1.2-1.1,2.1-2.2,2.6
		c-4.1,2.1-8.3,1.8-12.5,0.4c-1.3-0.5-2.6-1.4-2.1-3.1c0.4-1.6,1.9-1.2,3.1-1.2C176.6,353.9,178.5,353.9,180.4,353.9z"/>
	<path class="st13" d="M206.7,290.5c-3-0.1-4.6-1.9-4.8-4.5c-0.2-2.8,1.1-5.2,4.4-5.2c3,0,4.4,2.1,4.5,4.7
		C210.9,288.1,209.5,290.1,206.7,290.5z"/>
	<path class="st13" d="M305.7,287.2c-0.5,2.6-1.7,5-4.5,4.9c-3-0.1-4.7-2.3-4.5-5.3c0.2-2.6,1.8-4.7,4.7-4.6
		C304.2,282.5,305.4,284.7,305.7,287.2z"/>
</g>
<g>
	<path class="st14" d="M522.8,127.6c0.2,0,0.5,0.1,0.9,0.3c0.3,0.1,1,0.5,1.9,1c0.9,0.6,1.7,1.3,2.4,2.2s1.3,2.2,1.9,3.9
		c0.6,1.7,0.9,3.7,0.9,5.9c0,2.3-0.6,4.3-1.7,6c-1.1,1.8-2.5,3.1-4.1,4.1s-3.5,1.8-5.6,2.4c-2.1,0.6-4,1-5.8,1.3
		c-1.7,0.2-3.4,0.3-5,0.3c-1.3,0-2.4-0.4-3.4-1.1c-1-0.7-1.7-1.6-2.1-2.6s-0.8-2.1-1-3.1c-0.3-1.1-0.4-1.9-0.5-2.7l-0.1-1.1v-32.1
		c0-1.2,0.2-2.3,0.5-3.2c0.3-0.9,0.7-1.6,1.1-2.1s0.9-0.9,1.3-1.2c0.4-0.3,0.8-0.5,1.1-0.6l0.5-0.1c0.2,0,0.6-0.1,0.9-0.2
		c0.4-0.1,1.2-0.2,2.3-0.3c1.2-0.1,2.3-0.2,3.4-0.1c1.1,0,2.4,0.2,3.9,0.5s2.8,0.7,4,1.4c1.2,0.6,2.4,1.5,3.5,2.7s2,2.6,2.6,4.3
		c0.8,2.3,1.2,4.3,1.3,6.1c0,1.8-0.2,3.2-0.7,4.2s-1.1,1.8-1.7,2.4c-0.6,0.6-1.3,1.1-1.8,1.3L522.8,127.6z M519.9,117.2
		c-0.3-0.9-0.7-1.6-1.2-2.3c-0.5-0.7-1-1.2-1.5-1.5c-0.5-0.4-1.1-0.6-1.7-0.9c-0.6-0.2-1.1-0.3-1.6-0.4c-0.5,0-1-0.1-1.4-0.1
		s-0.8,0-1.3,0.1v13.5c0.3,0,0.7-0.1,1.2-0.3c0.5-0.1,1.3-0.4,2.4-0.9c1.2-0.5,2.1-1,3-1.5c0.8-0.6,1.5-1.3,1.9-2.4
		C520.4,119.5,520.4,118.4,519.9,117.2z M511.4,147.7c0.3,0,0.7,0,1.2-0.1s1.3-0.3,2.6-0.7c1.2-0.4,2.3-0.8,3.3-1.4
		c1-0.6,1.8-1.4,2.6-2.4c0.8-1.1,1.2-2.3,1.2-3.6s-0.4-2.5-1.1-3.3c-0.7-0.9-1.6-1.5-2.7-1.8c-1.1-0.3-2.1-0.5-3.2-0.6
		c-1.1-0.1-2-0.1-2.7,0l-1.1,0.1L511.4,147.7L511.4,147.7z"/>
	<path class="st14" d="M543.3,140.3c0,0.2,0,0.5,0,0.9c0,0.3,0,1,0,2s0,2-0.1,2.9s-0.2,1.9-0.4,3.1c-0.2,1.1-0.4,2.1-0.7,2.9
		c-0.3,0.8-0.7,1.5-1.3,2c-0.5,0.6-1.2,0.8-1.9,0.8c-1,0-1.8-0.4-2.6-1.2c-0.7-0.8-1.3-1.7-1.7-2.8s-0.7-2.2-0.9-3.3s-0.4-2-0.4-2.8
		l-0.1-1.2v-20.7c0-0.2,0-0.5,0.1-0.8c0-0.3,0.2-0.9,0.4-1.8s0.5-1.6,0.8-2.3c0.3-0.6,0.9-1.2,1.5-1.8c0.7-0.5,1.5-0.8,2.4-0.8
		s1.7,0.3,2.3,0.8s1.1,1.1,1.4,1.8c0.3,0.7,0.5,1.4,0.7,2.2c0.2,0.7,0.3,1.3,0.3,1.9l0.1,0.8v17.4L543.3,140.3L543.3,140.3z
		 M538.4,113.3c-1.3,0-2.5-0.6-3.5-1.7s-1.4-2.5-1.4-4.1c0-1,0.2-2,0.6-2.8c0.4-0.9,1-1.6,1.8-2.1s1.6-0.8,2.4-0.8
		c0.9,0,1.7,0.3,2.4,0.8s1.3,1.2,1.8,2.1c0.4,0.9,0.6,1.8,0.6,2.9c0,1-0.2,2-0.6,2.9c-0.4,0.9-1,1.6-1.8,2.1
		C540.1,113,539.3,113.3,538.4,113.3z"/>
	<path class="st14" d="M570.9,143.9c1.2,0.6,1.7,1.3,1.6,2.1c-0.1,0.8-0.4,1.6-0.9,2.3s-0.8,1.1-0.9,1.1c-2.7,2.4-5.2,3.9-7.5,4.8
		c-2.3,0.8-4.3,1-5.9,0.5c-1.6-0.5-3-1.4-4.3-2.5c-1.3-1.2-2.3-2.5-3-4.2c-0.7-1.6-1.4-3.2-1.9-4.6c-0.5-1.4-0.9-2.7-1-3.7l-0.3-1.5
		c-0.4-3-0.4-5.7-0.2-8c0.3-2.3,0.8-4.3,1.6-5.9s1.8-3,2.8-4s2.2-1.9,3.4-2.6c1.2-0.6,2.3-1.1,3.2-1.4c1-0.3,1.8-0.6,2.4-0.6
		l0.9-0.1c0.1,0,0.3,0,0.6,0c0.2,0,0.7,0,1.4,0.1s1.4,0.3,2.1,0.5c0.6,0.2,1.4,0.6,2.2,1.2s1.6,1.3,2.2,2.2c0.6,0.9,1.2,2.1,1.8,3.6
		c0.5,1.5,0.9,3.2,1.1,5.1c0.2,1.9,0,3.5-0.5,4.9c-0.6,1.4-1.3,2.4-2.3,3.1c-1,0.7-2.1,1.2-3.4,1.5c-1.2,0.4-2.5,0.5-3.8,0.5
		s-2.5-0.1-3.6-0.2c-1.1-0.1-2-0.2-2.7-0.4l-1-0.2c0.1,2,0.9,4,2.4,5.9s2.9,3,4.4,3.2c0.6,0.1,1.2-0.1,2-0.5s1.5-0.8,2.1-1.3
		s1.4-0.8,2.3-1.1C569.2,143.4,570.1,143.5,570.9,143.9z M555.2,127.6c-0.6,1.7-0.6,2.9,0,3.4c0.3,0.2,1,0.5,2.1,0.8
		s2.3,0.6,3.6,0.8s2.5,0,3.6-0.6s1.6-1.5,1.7-2.9c0-1.8-0.8-3-2.4-3.6c-1.7-0.6-3.4-0.6-5.2-0.1C556.7,126,555.6,126.7,555.2,127.6z
		"/>
	<path class="st14" d="M592.1,115.6c1.9,0,3.4,0.6,4.6,1.7c1.2,1.2,2.1,3.1,2.8,5.8c0.7,2.7,1.1,6.1,1.3,10.2s0.2,9.3,0.1,15.6
		c0,0.1,0,0.2,0,0.4c0,0.1,0,0.4-0.1,0.9s-0.1,0.8-0.2,1.2c-0.1,0.4-0.3,0.8-0.5,1.3s-0.5,0.9-0.8,1.2s-0.7,0.6-1.2,0.9
		c-0.5,0.2-1,0.4-1.6,0.4s-1.1-0.2-1.6-0.6c-0.5-0.4-0.9-1-1.2-1.7s-0.6-1.5-0.8-2.3s-0.4-1.6-0.5-2.4c-0.1-0.8-0.2-1.6-0.3-2.3
		s-0.1-1.3-0.1-1.7v-0.6c0-0.4,0-0.9,0-1.6c0-0.7,0-2,0-3.9s-0.2-3.6-0.4-5.1c-0.3-1.6-0.6-3.1-1-4.7c-0.4-1.6-1.1-2.7-1.9-3.4
		c-0.9-0.7-1.8-0.9-3-0.4h-0.1v16.3c0,0.2,0,0.5,0,0.8c0,0.4,0,1,0,2.1c0,1,0,2-0.1,2.9s-0.2,1.9-0.4,3s-0.4,2.1-0.7,2.9
		c-0.3,0.8-0.7,1.5-1.3,2.1c-0.5,0.6-1.2,0.8-1.9,0.8c-1,0-1.8-0.4-2.6-1.2c-0.7-0.8-1.3-1.7-1.7-2.8s-0.7-2.2-0.9-3.3
		s-0.4-2.1-0.4-2.9l-0.1-1.2v-20.7c0-0.2,0-0.5,0.1-0.8c0-0.3,0.2-0.9,0.4-1.8c0.2-0.8,0.5-1.6,0.8-2.2s0.9-1.2,1.5-1.8
		c0.7-0.5,1.5-0.8,2.3-0.8c1.6,0,2.9,0.8,3.7,2.4C586.6,116.4,589.1,115.6,592.1,115.6z"/>
	<path class="st14" d="M625.7,115.6c0.7,0.1,1.2,0.5,1.7,1c0.5,0.6,0.8,1.1,0.9,1.7c0.1,0.6,0.2,1.2,0.2,1.9c0,0.7,0,1.2,0,1.5
		s-0.1,0.5-0.1,0.6l-5.7,24.6c0,0.2-0.1,0.6-0.3,0.9c-0.1,0.4-0.4,1-0.7,1.8c-0.4,0.8-0.7,1.6-1.2,2.3c-0.4,0.7-0.9,1.3-1.5,1.9
		c-0.6,0.6-1.2,0.9-1.9,1H615c-0.7,0-1.3-0.3-2-0.9c-0.6-0.6-1.2-1.2-1.6-1.8c-0.4-0.7-0.8-1.5-1.2-2.3c-0.4-0.9-0.6-1.5-0.7-1.9
		c-0.1-0.4-0.2-0.7-0.3-0.9l-5.7-24.6c0-0.1-0.1-0.4-0.1-0.6c0-0.3,0-0.8,0-1.5s0.1-1.3,0.3-1.9c0.1-0.6,0.4-1.1,0.9-1.7
		c0.4-0.6,1-0.9,1.7-1c0.9-0.2,1.7-0.1,2.4,0.4c1.3,0.8,2.3,2.4,2.7,4.6l4.6,19.9l4.6-19.9c0.5-2.3,1.4-3.8,2.7-4.6
		C624.1,115.5,624.8,115.4,625.7,115.6z"/>
	<path class="st14" d="M654.6,143.9c1.2,0.6,1.7,1.3,1.6,2.1c-0.1,0.8-0.4,1.6-0.9,2.3s-0.8,1.1-0.9,1.1c-2.7,2.4-5.2,3.9-7.5,4.8
		c-2.3,0.8-4.3,1-5.9,0.5c-1.6-0.5-3-1.4-4.3-2.5c-1.3-1.2-2.3-2.5-3-4.2c-0.7-1.6-1.4-3.2-1.9-4.6c-0.5-1.4-0.9-2.7-1-3.7l-0.3-1.5
		c-0.4-3-0.4-5.7-0.2-8c0.3-2.3,0.8-4.3,1.6-5.9s1.8-3,2.8-4s2.2-1.9,3.4-2.6c1.2-0.6,2.3-1.1,3.2-1.4c1-0.3,1.8-0.6,2.4-0.6
		l0.9-0.1c0.1,0,0.3,0,0.6,0c0.2,0,0.7,0,1.4,0.1s1.4,0.3,2.1,0.5c0.6,0.2,1.4,0.6,2.2,1.2s1.6,1.3,2.2,2.2c0.6,0.9,1.2,2.1,1.8,3.6
		c0.5,1.5,0.9,3.2,1.1,5.1c0.2,1.9,0,3.5-0.5,4.9c-0.6,1.4-1.3,2.4-2.3,3.1c-1,0.7-2.1,1.2-3.4,1.5c-1.2,0.4-2.5,0.5-3.8,0.5
		s-2.5-0.1-3.6-0.2c-1.1-0.1-2-0.2-2.7-0.4l-1-0.2c0.1,2,0.9,4,2.4,5.9s2.9,3,4.4,3.2c0.6,0.1,1.2-0.1,2-0.5s1.5-0.8,2.1-1.3
		s1.4-0.8,2.3-1.1C652.8,143.4,653.7,143.5,654.6,143.9z M638.9,127.6c-0.6,1.7-0.6,2.9,0,3.4c0.3,0.2,1,0.5,2.1,0.8
		s2.3,0.6,3.6,0.8s2.5,0,3.6-0.6s1.6-1.5,1.7-2.9c0-1.8-0.8-3-2.4-3.6c-1.7-0.6-3.4-0.6-5.2-0.1C640.4,126,639.3,126.7,638.9,127.6z
		"/>
	<path class="st14" d="M675.7,115.6c1.9,0,3.4,0.6,4.6,1.7c1.2,1.2,2.1,3.1,2.8,5.8c0.7,2.7,1.1,6.1,1.3,10.2s0.2,9.3,0.1,15.6
		c0,0.1,0,0.2,0,0.4c0,0.1,0,0.4-0.1,0.9s-0.1,0.8-0.2,1.2c-0.1,0.4-0.3,0.8-0.5,1.3s-0.5,0.9-0.8,1.2s-0.7,0.6-1.2,0.9
		c-0.5,0.2-1,0.4-1.6,0.4s-1.1-0.2-1.6-0.6c-0.5-0.4-0.9-1-1.2-1.7s-0.6-1.5-0.8-2.3s-0.4-1.6-0.5-2.4c-0.1-0.8-0.2-1.6-0.3-2.3
		s-0.1-1.3-0.1-1.7v-0.6c0-0.4,0-0.9,0-1.6c0-0.7,0-2,0-3.9s-0.2-3.6-0.4-5.1c-0.3-1.6-0.6-3.1-1-4.7c-0.4-1.6-1.1-2.7-1.9-3.4
		c-0.9-0.7-1.8-0.9-3-0.4h-0.1v16.3c0,0.2,0,0.5,0,0.8c0,0.4,0,1,0,2.1c0,1,0,2-0.1,2.9s-0.2,1.9-0.4,3s-0.4,2.1-0.7,2.9
		c-0.3,0.8-0.7,1.5-1.3,2.1c-0.5,0.6-1.2,0.8-1.9,0.8c-1,0-1.8-0.4-2.6-1.2c-0.7-0.8-1.3-1.7-1.7-2.8s-0.7-2.2-0.9-3.3
		s-0.4-2.1-0.4-2.9l-0.1-1.2v-20.7c0-0.2,0-0.5,0.1-0.8c0-0.3,0.2-0.9,0.4-1.8c0.2-0.8,0.5-1.6,0.8-2.2s0.9-1.2,1.5-1.8
		c0.7-0.5,1.5-0.8,2.3-0.8c1.6,0,2.9,0.8,3.7,2.4C670.2,116.4,672.7,115.6,675.7,115.6z"/>
	<path class="st14" d="M698.4,140.3c0,0.2,0,0.5,0,0.9c0,0.3,0,1,0,2s0,2-0.1,2.9s-0.2,1.9-0.4,3.1c-0.2,1.1-0.4,2.1-0.7,2.9
		c-0.3,0.8-0.7,1.5-1.3,2c-0.5,0.6-1.2,0.8-1.9,0.8c-1,0-1.8-0.4-2.6-1.2c-0.7-0.8-1.3-1.7-1.7-2.8s-0.7-2.2-0.9-3.3s-0.4-2-0.4-2.8
		l-0.1-1.2v-20.7c0-0.2,0-0.5,0.1-0.8c0-0.3,0.2-0.9,0.4-1.8s0.5-1.6,0.8-2.3c0.3-0.6,0.9-1.2,1.5-1.8c0.7-0.5,1.5-0.8,2.4-0.8
		s1.7,0.3,2.3,0.8s1.1,1.1,1.4,1.8c0.3,0.7,0.5,1.4,0.7,2.2c0.2,0.7,0.3,1.3,0.3,1.9l0.1,0.8v17.4L698.4,140.3L698.4,140.3z
		 M693.5,113.3c-1.3,0-2.5-0.6-3.5-1.7s-1.4-2.5-1.4-4.1c0-1,0.2-2,0.6-2.8c0.4-0.9,1-1.6,1.8-2.1s1.6-0.8,2.4-0.8s1.7,0.3,2.4,0.8
		s1.3,1.2,1.8,2.1c0.4,0.9,0.6,1.8,0.6,2.9c0,1-0.2,2-0.6,2.9c-0.4,0.9-1,1.6-1.8,2.1C695.2,113,694.4,113.3,693.5,113.3z"/>
	<path class="st14" d="M722.4,104.5c1,0,1.8,0.2,2.5,0.7s1.2,1,1.5,1.5c0.3,0.6,0.6,1.2,0.8,2c0.2,0.7,0.3,1.3,0.3,1.5
		c0,0.3,0,0.5,0,0.7v35.5c0,0.2,0,0.4,0,0.8c0,0.3-0.1,0.9-0.2,1.7c-0.1,0.8-0.2,1.6-0.4,2.3s-0.4,1.4-0.8,2.1
		c-0.4,0.7-0.8,1.2-1.3,1.4c-0.5,0.3-1.1,0.3-1.9,0c-0.8-0.2-1.7-0.8-2.7-1.7c-0.2,0.1-0.5,0.3-0.8,0.5s-1,0.5-2,0.8s-2,0.5-3,0.5
		s-2.1-0.3-3.4-0.9c-1.3-0.6-2.4-1.6-3.5-3c-1.1-1.3-2.1-3.4-3.2-6.1c-1-2.7-1.9-6-2.5-9.8c0-0.3,0-0.8-0.1-1.3c0-0.5,0-1.5,0.1-3
		s0.3-2.9,0.5-4.2c0.3-1.3,0.8-2.8,1.5-4.4s1.7-2.9,2.7-3.9c1.1-1,2.6-1.8,4.5-2.4s4.1-0.7,6.6-0.3c0-0.1,0-0.3,0-0.6
		c0-0.3,0-0.8,0-1.5c0-0.8,0-1.5,0.1-2.2c0-0.7,0.2-1.5,0.4-2.3c0.2-0.9,0.5-1.6,0.8-2.2s0.8-1.2,1.4-1.6
		C720.9,104.7,721.6,104.5,722.4,104.5z M709.4,134.1c0.4,7.7,2.4,11.9,5.9,12.4c1,0.1,1.8,0,2.6-0.4c-0.2-0.6-0.3-2.8-0.4-6.4
		c0-3.6-0.1-7.1-0.1-10.4v-5c0,0-0.1-0.1-0.3-0.2c-0.1-0.1-0.4-0.2-0.8-0.3c-0.4-0.1-0.8-0.2-1.2-0.3c-0.4-0.1-0.8-0.1-1.3,0
		c-0.5,0-1,0.2-1.4,0.4c-0.4,0.2-0.9,0.6-1.3,1.1c-0.4,0.5-0.8,1.2-1,1.9c-0.3,0.7-0.5,1.7-0.6,3
		C709.4,131.1,709.3,132.6,709.4,134.1z"/>
	<path class="st14" d="M743.5,115.6c1.9,0.1,3.6,0.6,5.1,1.5c1.5,0.8,2.6,1.8,3.5,3s1.6,2.4,2.2,3.8c0.6,1.4,1,2.7,1.3,4
		c0.2,1.3,0.4,2.5,0.5,3.6s0.1,2,0.1,2.7l-0.1,1c-0.3,3.4-0.9,6.4-1.8,8.9c-0.9,2.5-1.8,4.5-2.9,5.8c-1,1.3-2.2,2.4-3.5,3.2
		s-2.3,1.3-3.2,1.5c-0.8,0.2-1.6,0.3-2.4,0.3c-0.7,0-1.5-0.1-2.3-0.4c-0.8-0.2-1.8-0.8-3-1.7s-2.2-2-3.1-3.4
		c-0.9-1.4-1.6-3.5-2.2-6.2c-0.6-2.7-0.9-5.8-0.8-9.3c0.1-2.5,0.4-4.8,0.9-6.8c0.5-2.1,1.1-3.7,1.9-5c0.7-1.2,1.5-2.3,2.4-3.2
		c0.9-0.9,1.7-1.6,2.6-2c0.9-0.4,1.7-0.8,2.4-1s1.3-0.4,1.7-0.4L743.5,115.6L743.5,115.6z M747.8,133.9c0.1-2,0.1-3.7,0-4.9
		c-0.1-1.3-0.4-2.2-0.9-2.7c-0.4-0.5-0.9-0.9-1.3-1c-0.4-0.1-1-0.2-1.7-0.1c-0.1,0-0.3-0.1-0.5,0c-0.2,0-0.7,0.2-1.3,0.5
		s-1.1,0.8-1.6,1.3c-0.5,0.6-0.9,1.6-1.4,3s-0.8,3-0.9,4.9c-0.1,2.4-0.1,4.5,0,6.1c0.2,1.6,0.5,2.8,0.9,3.5c0.5,0.7,0.9,1.2,1.4,1.4
		s1,0.4,1.8,0.4s1.6-0.4,2.3-1.3c0.7-0.8,1.4-2.2,1.9-4.1C747.2,138.8,747.6,136.5,747.8,133.9z"/>
	<path class="st14" d="M804.3,129.7v19.2c-0.1,1.8-0.4,3.2-1,4.2s-1.2,1.6-1.9,1.7c-0.7,0.1-1.4,0.1-2.1,0c-0.7-0.1-1.2-0.4-1.7-0.6
		l-0.7-0.4c-0.4,0.4-1.1,0.7-2.2,0.9c-1.1,0.2-2.4,0.3-3.8,0.2c-1.4-0.1-2.9-0.4-4.4-0.9c-1.5-0.6-2.9-1.3-4.1-2.2
		c-1.2-0.9-2.2-2.3-2.9-4s-1-3.7-0.9-6c0.1-1.9,0.5-3.6,1.2-5.1c0.6-1.5,1.4-2.7,2.3-3.6c0.9-0.9,1.9-1.7,2.9-2.3
		c1.1-0.6,2.1-1.1,3.1-1.3s2-0.4,2.8-0.5s1.5-0.2,2-0.2h0.8c-0.3-1.6-1.1-2.8-2.2-3.4c-1.1-0.6-2.4-0.9-3.7-0.8
		c-1.4,0.1-2.8,0.4-4.1,0.7c-1.4,0.3-2.6,0.5-3.7,0.4c-1.1,0-1.8-0.4-2.1-1.1c-0.2-0.8-0.3-1.6-0.2-2.4s0.5-1.6,1.3-2.4
		s1.7-1.5,2.8-2.1s2.7-1.1,4.6-1.4s4.1-0.5,6.4-0.5c1.6,0,3.1,0.3,4.4,0.8c1.3,0.5,2.4,1.2,3.1,2.1c0.8,0.8,1.4,1.8,2,2.8
		s0.9,2,1.2,3c0.2,1,0.4,1.9,0.5,2.7c0.1,0.8,0.1,1.5,0.1,2v0.5L804.3,129.7L804.3,129.7z M786.6,137.9c-0.7,1.3-0.9,2.6-0.8,4
		c0.1,1.4,0.6,2.5,1.3,3.5s1.6,1.8,2.7,2.6c1,0.7,2.1,1.1,3.2,1.2c1.1,0,2.1-0.1,3-0.6l-1-11.1c-0.1-0.1-0.2-0.2-0.3-0.4
		c-0.1-0.1-0.4-0.4-0.8-0.8c-0.4-0.4-0.8-0.7-1.2-0.9s-0.8-0.4-1.4-0.6c-0.5-0.2-1.1-0.2-1.6-0.1c-0.5,0.1-1.1,0.4-1.6,0.9
		C787.6,136.2,787.1,136.9,786.6,137.9z"/>
	<path class="st14" d="M845.5,138.6c-0.4-0.3-0.9-0.8-1.7-1.3c-0.7-0.6-2-1.6-3.9-3.2c-1.9-1.6-3.6-3.1-5.1-4.5s-3.1-3-4.6-4.6
		c-1.5-1.7-2.5-3-3.1-4.1c-0.5-1-0.8-2-0.8-3.2c-0.1-1.2,0-2.4,0.4-3.6c0.3-1.2,0.9-2.4,1.8-3.6c0.9-1.2,1.9-2.2,3.1-3.1
		c1.2-0.9,2.8-1.6,4.6-2.2c1.9-0.6,3.9-0.8,6.2-0.8c1.9,0,3.6,0.2,5,0.6s2.5,0.9,3.3,1.6c0.7,0.6,1.3,1.4,1.8,2.2
		c0.5,0.8,0.7,1.6,0.8,2.3c0.1,0.8,0.1,1.5,0.1,2.1s-0.1,1.2-0.3,1.6l-0.1,0.6c-0.8,1.2-1.6,2-2.6,2.3c-0.9,0.3-1.9,0.3-2.8-0.1
		c-0.9-0.4-1.9-0.9-2.9-1.4c-1-0.6-2-1.1-2.8-1.7c-0.9-0.6-1.8-0.8-2.7-0.9c-0.9,0-1.7,0.3-2.3,1c-0.5,0.5-0.8,1-0.9,1.5
		c-0.1,0.5-0.1,1,0.1,1.6c0.2,0.6,0.5,1.1,0.9,1.7s0.9,1.2,1.6,1.8c0.7,0.6,1.4,1.3,2.1,1.9c0.7,0.6,1.6,1.3,2.7,2.2
		c1,0.8,2,1.6,3,2.3s2.1,1.6,3.3,2.6s2.4,2,3.4,2.9c2,1.7,3.3,3.6,4,5.7c0.7,2.1,0.9,4,0.4,5.9c-0.4,1.8-1.1,3.5-2.1,5.1
		s-2.1,2.8-3.5,3.7c-1.3,0.9-2.6,1.4-3.7,1.4c-1.5,0-3,0-4.5-0.1s-3.3-0.3-5.3-0.7s-3.8-0.9-5.3-1.5s-2.7-1.5-3.7-2.6
		s-1.4-2.4-1.3-3.9c0.1-1.5,0.4-2.7,0.9-3.5s1-1.3,1.6-1.4c0.6-0.1,1.2-0.1,1.7-0.1c0.6,0.1,1,0.2,1.4,0.4l0.6,0.4
		c0.1,0,0.2,0.1,0.4,0.3c0.2,0.1,0.5,0.4,1,0.7s1,0.7,1.5,0.9c0.5,0.3,1.1,0.6,1.9,0.9s1.5,0.6,2.1,0.8c0.6,0.1,1.4,0.3,2.2,0.4
		c0.8,0.1,1.6,0.1,2.2-0.2c1.1-0.3,1.8-0.8,2.2-1.4c0.4-0.6,0.5-1.2,0.2-1.8c-0.2-0.6-0.6-1.2-0.9-1.8c-0.4-0.6-0.8-1.1-1.2-1.4
		L845.5,138.6z"/>
	<path class="st14" d="M869.9,140.3c0,0.2,0,0.5,0,0.9c0,0.3,0,1,0,2s0,2-0.1,2.9s-0.2,1.9-0.4,3.1c-0.2,1.1-0.4,2.1-0.7,2.9
		c-0.3,0.8-0.7,1.5-1.3,2c-0.5,0.6-1.2,0.8-1.9,0.8c-1,0-1.8-0.4-2.6-1.2c-0.7-0.8-1.3-1.7-1.7-2.8s-0.7-2.2-0.9-3.3s-0.4-2-0.4-2.8
		l-0.1-1.2v-20.7c0-0.2,0-0.5,0.1-0.8c0-0.3,0.2-0.9,0.4-1.8s0.5-1.6,0.8-2.3c0.3-0.6,0.9-1.2,1.5-1.8c0.7-0.5,1.5-0.8,2.4-0.8
		s1.7,0.3,2.3,0.8s1.1,1.1,1.4,1.8c0.3,0.7,0.5,1.4,0.7,2.2c0.2,0.7,0.3,1.3,0.3,1.9l0.1,0.8v17.4L869.9,140.3L869.9,140.3z
		 M865,113.3c-1.3,0-2.5-0.6-3.5-1.7s-1.4-2.5-1.4-4.1c0-1,0.2-2,0.6-2.8c0.4-0.9,1-1.6,1.8-2.1s1.6-0.8,2.4-0.8
		c0.9,0,1.7,0.3,2.4,0.8s1.3,1.2,1.8,2.1c0.4,0.9,0.6,1.8,0.6,2.9c0,1-0.2,2-0.6,2.9c-0.4,0.9-1,1.6-1.8,2.1
		C866.7,113,865.9,113.3,865,113.3z"/>
	<path class="st14" d="M904.7,115.6c1.9,0,3.4,0.6,4.6,1.7c1.2,1.1,2.1,3,2.8,5.8c0.7,2.7,1.1,6.1,1.3,10.2s0.2,9.3,0.1,15.6
		c0,0.1,0,0.4,0,0.6c0,0.3-0.1,0.8-0.3,1.5s-0.4,1.3-0.6,1.8c-0.3,0.5-0.7,1-1.3,1.4s-1.3,0.6-2.1,0.6s-1.5-0.4-2.2-1.2
		c-0.6-0.8-1.1-1.8-1.3-2.9c-0.3-1.2-0.5-2.3-0.6-3.4c-0.2-1.1-0.3-2.1-0.3-2.8l-0.1-1.2c0-0.4,0.1-0.9,0.1-1.6c0-0.7,0-2-0.1-3.9
		c0-1.9-0.2-3.6-0.5-5.1c-0.3-1.6-0.6-3.1-1-4.7c-0.4-1.6-1.1-2.7-1.9-3.4c-0.8-0.7-1.8-0.9-3-0.5c0,0-0.1,0-0.3,0.1
		c1.1,4.8,1.4,13.1,1.2,24.6c0,0.1,0,0.2,0,0.4c0,0.1,0,0.4-0.1,0.8c0,0.4-0.1,0.8-0.2,1.2c-0.1,0.4-0.3,0.8-0.5,1.3
		s-0.5,0.9-0.8,1.2s-0.7,0.6-1.2,0.9c-0.5,0.2-1,0.4-1.6,0.4c-0.9,0-1.6-0.4-2.2-1.2c-0.6-0.8-1-1.8-1.3-2.9
		c-0.3-1.2-0.5-2.3-0.6-3.4c-0.1-1.1-0.2-2.1-0.3-2.8v-1.2c0-0.4,0-0.9,0-1.6c0-0.7,0-2,0-3.9s-0.2-3.6-0.4-5.1
		c-0.3-1.6-0.6-3.1-1-4.7c-0.4-1.6-1.1-2.7-1.9-3.4c-0.9-0.7-1.8-0.9-3-0.5H884v16.3c0,0.2,0,0.5,0,0.8c0,0.4,0,1,0,2s0,1.9-0.1,2.8
		c-0.1,0.9-0.2,1.9-0.4,3.1c-0.2,1.1-0.4,2.1-0.7,2.9c-0.3,0.8-0.7,1.5-1.3,2c-0.5,0.6-1.2,0.8-1.9,0.8c-0.5,0-1-0.1-1.5-0.4
		c-0.5-0.3-0.9-0.6-1.3-1c-0.4-0.4-0.7-0.9-1-1.5s-0.5-1.2-0.7-1.8s-0.4-1.2-0.5-1.9c-0.1-0.6-0.3-1.2-0.3-1.8
		c-0.1-0.6-0.1-1.1-0.2-1.5c0-0.5-0.1-0.8-0.1-1v-0.4V123c0-0.2,0-0.5,0.1-0.8c0-0.3,0.2-0.9,0.4-1.8c0.2-0.8,0.5-1.6,0.8-2.2
		s0.9-1.2,1.5-1.8c0.7-0.6,1.5-0.8,2.3-0.8c1.6,0,2.9,0.8,3.7,2.5c2-1.6,4.5-2.4,7.5-2.4c2.5,0,4.5,1.1,5.8,3.3
		C898.2,116.7,901.1,115.6,904.7,115.6z"/>
	<path class="st14" d="M943.5,151.1c-2.6,1.7-5.1,2.8-7.5,3.3c-2.3,0.6-4.3,0.6-6,0.2c-1.7-0.4-3.2-1.2-4.7-2.4
		c-1.4-1.2-2.6-2.5-3.5-3.9s-1.7-3-2.5-4.8c-0.7-1.8-1.3-3.3-1.6-4.6s-0.6-2.6-0.9-3.9c-0.2-1.1-0.4-2.4-0.4-4s0.1-3.3,0.3-5.3
		c0.2-1.9,0.5-3.9,1-5.8c0.4-1.9,1-3.9,1.8-5.7c0.8-1.9,1.7-3.5,2.7-4.9s2.3-2.6,3.9-3.5c1.6-0.9,3.3-1.3,5.1-1.3s3.5,0.3,5.1,0.8
		s3,1.2,4,2c1.1,0.8,2.1,1.7,3,2.7s1.6,2,2.1,2.9c0.5,1,1,1.8,1.4,2.7c0.4,0.8,0.6,1.5,0.7,2l0.2,0.7c0.4,0.9,0.6,1.7,0.6,2.6
		c0,0.8-0.1,1.6-0.3,2.2s-0.5,1.1-0.7,1.6c-0.3,0.5-0.5,0.8-0.8,1l-0.4,0.4c-1.2,0.4-2.1,0.6-3,0.5c-0.8-0.1-1.5-0.4-2.1-0.8
		c-0.6-0.5-1-0.9-1.4-1.5c-0.4-0.5-0.6-1-0.8-1.4l-0.2-0.6c-0.7-1.7-1.4-3-2.2-4.1s-1.5-1.8-2.2-2.1c-0.6-0.3-1.2-0.6-1.8-0.7
		s-1-0.1-1.3,0l-0.4,0.2c-1.7,0.6-3.1,1.6-4.1,3s-1.7,3-1.9,4.6c-0.3,1.6-0.4,3.2-0.5,4.8c0,1.5,0,2.8,0.2,3.8l0.3,1.5
		c0.8,2.8,1.7,5.2,2.7,7s2,3.1,2.9,3.6c0.9,0.6,1.8,0.9,2.5,1.1c0.8,0.2,1.4,0.2,1.9,0l0.6-0.3l3.5-1.9c4.5-2,7-1.7,7.5,0.9
		c0.1,0.8,0.2,1.5,0.2,2.1s-0.1,1.2-0.3,1.7s-0.4,1-0.6,1.4c-0.2,0.4-0.5,0.8-0.7,1c-0.3,0.3-0.5,0.5-0.7,0.7s-0.4,0.3-0.5,0.4
		L943.5,151.1z"/>
	<path class="st14" d="M970.4,115.5c1,0,1.8,0.4,2.6,1.2s1.3,1.7,1.7,2.7s0.7,2.2,0.9,3.5s0.4,2.2,0.4,2.7s0.1,0.9,0.1,1.3v20.7
		c0,0.2,0,0.5,0,0.8s-0.1,0.9-0.4,1.8c-0.2,0.8-0.5,1.6-0.8,2.2s-0.8,1.2-1.5,1.8s-1.5,0.8-2.4,0.8c-1.6,0-2.9-0.8-3.7-2.5
		c-1.9,1.6-4.4,2.4-7.5,2.4c-1.9,0-3.4-0.6-4.6-1.7c-1.2-1.1-2.1-3.1-2.8-5.8s-1.1-6.1-1.3-10.2c-0.2-4.1-0.3-9.3-0.1-15.6
		c0-0.1,0-0.2,0-0.4s0-0.4,0.1-0.8s0.2-0.8,0.3-1.2c0.1-0.4,0.3-0.8,0.5-1.3s0.5-0.9,0.8-1.2c0.3-0.3,0.7-0.6,1.2-0.8
		c0.5-0.2,1-0.3,1.7-0.3c0.8,0,1.5,0.4,2.1,1.2c0.6,0.8,1,1.8,1.3,2.9s0.5,2.3,0.7,3.4c0.2,1.2,0.3,2.1,0.3,2.9v1.2
		c0,0.4,0,0.9,0,1.6s0,2,0.1,3.9s0.2,3.6,0.5,5.1c0.3,1.6,0.6,3.1,1,4.7c0.4,1.6,1,2.7,1.9,3.4s1.9,0.9,3,0.5l0.1-0.1V130
		c0-0.2-0.1-0.5-0.1-0.8s0-1,0-2.1c0-1,0-2,0.1-2.9c0-0.9,0.2-1.9,0.4-3s0.4-2.1,0.7-2.8s0.7-1.5,1.2-2
		C969.1,115.8,969.7,115.5,970.4,115.5z"/>
	<path class="st14" d="M990.2,140.5c0,0.2,0,0.5,0,0.8c0,0.4,0,1,0,2.1c0,1,0,2-0.1,2.9s-0.2,1.9-0.4,3s-0.4,2.1-0.7,2.9
		c-0.3,0.8-0.7,1.5-1.3,2.1c-0.5,0.6-1.2,0.8-1.9,0.8c-1,0-1.8-0.4-2.6-1.2c-0.7-0.8-1.3-1.7-1.7-2.8s-0.7-2.2-0.9-3.3
		s-0.4-2.1-0.4-2.8l-0.1-1.2V112c0-0.2,0-0.5,0.1-0.8c0-0.3,0.2-0.9,0.4-1.8s0.5-1.6,0.8-2.3c0.3-0.6,0.9-1.2,1.5-1.8
		c0.7-0.5,1.5-0.8,2.4-0.8s1.7,0.3,2.3,0.8s1.1,1.1,1.4,1.8c0.3,0.7,0.5,1.4,0.7,2.2c0.2,0.7,0.3,1.3,0.3,1.9l0.1,0.8v28.5H990.2z"
		/>
	<path class="st14" d="M1022.2,147.2c0,0.6,0,1.1-0.2,1.7c-0.2,0.6-0.4,1-0.7,1.4s-0.7,0.8-1,1.1c-0.4,0.3-0.8,0.6-1.2,0.8
		s-0.7,0.4-1.1,0.5c-0.3,0.1-0.6,0.3-0.8,0.4l-0.3,0.1c-0.1,0.1-0.2,0.2-0.4,0.3s-0.6,0.2-1.2,0.5c-0.6,0.2-1.4,0.4-2.1,0.5
		c-0.8,0.1-1.8,0.2-3.1,0.3s-2.7,0-4.1-0.2c-1.4-0.2-2.7-0.8-3.7-1.9c-1-1.1-1.7-2.3-2.1-3.7c-0.4-1.4-0.7-2.8-0.8-4.2
		c-0.2-1.4-0.2-2.6-0.2-3.5v-1.4v-15.2c-4.7-0.2-7.1-1.3-7.1-3.2c0-0.9,0.3-1.7,0.8-2.3c0.5-0.6,1.2-1.2,2.1-1.5
		c0.9-0.4,1.6-0.6,2.3-0.8c0.6-0.1,1.3-0.3,1.9-0.4v-5.8c0-1.4,0.2-2.6,0.6-3.5c0.4-0.9,1-1.6,1.6-2s1.3-0.6,1.9-0.7
		c0.7-0.1,1.3,0,1.9,0.3c0.6,0.2,1,0.6,1.3,1c0.4,0.6,0.7,3.8,1.1,9.6c6.4-0.3,10.1,0.6,11.1,3c0.4,1,0.3,1.8-0.3,2.6
		c-0.6,0.7-1.6,1.3-3,1.7c-1.3,0.4-2.6,0.7-3.7,0.9c-1.1,0.2-2.3,0.4-3.6,0.5c0.5,9.6,1.1,15.6,1.6,17.9c0.2,1,0.6,1.8,0.9,2.4
		c0.4,0.6,0.8,1,1.2,1.3c0.4,0.2,0.9,0.3,1.3,0.4c0.5,0,0.9,0,1.3-0.2c0.4-0.2,0.8-0.3,1.2-0.5c0.3-0.2,0.6-0.4,0.8-0.5l0.3-0.3
		c0.1,0,0.3-0.1,0.5-0.1s0.6-0.1,1.2-0.2c0.6-0.1,1.1,0,1.5,0.1c0.5,0.1,0.9,0.4,1.3,0.9C1021.9,145.8,1022.1,146.4,1022.2,147.2z"
		/>
	<path class="st14" d="M1034.3,140.3c0,0.2,0,0.5,0,0.9c0,0.3,0,1,0,2s0,2-0.1,2.9s-0.2,1.9-0.4,3.1c-0.2,1.1-0.4,2.1-0.7,2.9
		c-0.3,0.8-0.7,1.5-1.3,2c-0.5,0.6-1.2,0.8-1.9,0.8c-1,0-1.8-0.4-2.6-1.2c-0.7-0.8-1.3-1.7-1.7-2.8c-0.4-1.1-0.7-2.2-0.9-3.3
		c-0.2-1.1-0.4-2-0.4-2.8l-0.1-1.2v-20.7c0-0.2,0-0.5,0.1-0.8c0-0.3,0.2-0.9,0.4-1.8c0.2-0.9,0.5-1.6,0.8-2.3
		c0.3-0.6,0.9-1.2,1.5-1.8c0.7-0.5,1.5-0.8,2.4-0.8s1.7,0.3,2.3,0.8s1.1,1.1,1.4,1.8c0.3,0.7,0.5,1.4,0.7,2.2
		c0.2,0.7,0.3,1.3,0.3,1.9l0.1,0.8L1034.3,140.3L1034.3,140.3z M1029.4,113.3c-1.3,0-2.5-0.6-3.5-1.7s-1.4-2.5-1.4-4.1
		c0-1,0.2-2,0.6-2.8c0.4-0.9,1-1.6,1.8-2.1s1.6-0.8,2.4-0.8c0.9,0,1.7,0.3,2.4,0.8s1.3,1.2,1.8,2.1c0.4,0.9,0.6,1.8,0.6,2.9
		c0,1-0.2,2-0.6,2.9s-1,1.6-1.8,2.1C1031.1,113,1030.3,113.3,1029.4,113.3z"/>
	<path class="st14" d="M1059.3,115.6c0.7,0.1,1.2,0.5,1.7,1c0.5,0.6,0.8,1.1,0.9,1.7s0.2,1.2,0.2,1.9c0,0.7,0,1.2,0,1.5
		s-0.1,0.5-0.1,0.6l-5.7,24.6c0,0.2-0.1,0.6-0.3,0.9c-0.1,0.4-0.4,1-0.7,1.8c-0.4,0.8-0.7,1.6-1.2,2.3c-0.4,0.7-0.9,1.3-1.5,1.9
		c-0.6,0.6-1.2,0.9-1.9,1h-2.1c-0.7,0-1.3-0.3-2-0.9c-0.6-0.6-1.2-1.2-1.6-1.8c-0.4-0.7-0.8-1.5-1.2-2.3c-0.4-0.9-0.6-1.5-0.7-1.9
		s-0.2-0.7-0.3-0.9l-5.7-24.6c0-0.1-0.1-0.4-0.1-0.6c0-0.3,0-0.8,0-1.5s0.1-1.3,0.3-1.9c0.1-0.6,0.4-1.1,0.9-1.7
		c0.4-0.6,1-0.9,1.7-1c0.9-0.2,1.7-0.1,2.4,0.4c1.3,0.8,2.3,2.4,2.7,4.6l4.6,19.9l4.6-19.9c0.5-2.3,1.4-3.8,2.7-4.6
		C1057.6,115.5,1058.4,115.4,1059.3,115.6z"/>
	<path class="st14" d="M1076.5,115.6c1.9,0.1,3.6,0.6,5.1,1.5c1.5,0.8,2.6,1.8,3.5,3s1.6,2.4,2.2,3.8s1,2.7,1.3,4
		c0.2,1.3,0.4,2.5,0.5,3.6s0.1,2,0.1,2.7l-0.1,1c-0.3,3.4-0.9,6.4-1.8,8.9s-1.8,4.5-2.9,5.8c-1,1.3-2.2,2.4-3.5,3.2
		s-2.3,1.3-3.2,1.5c-0.8,0.2-1.6,0.3-2.4,0.3c-0.7,0-1.5-0.1-2.3-0.4c-0.8-0.2-1.8-0.8-3-1.7s-2.2-2-3.1-3.4s-1.6-3.5-2.2-6.2
		s-0.9-5.8-0.8-9.3c0.1-2.5,0.4-4.8,0.9-6.8c0.5-2.1,1.1-3.7,1.9-5c0.7-1.2,1.5-2.3,2.4-3.2c0.9-0.9,1.7-1.6,2.6-2s1.7-0.8,2.4-1
		c0.7-0.2,1.3-0.4,1.7-0.4L1076.5,115.6L1076.5,115.6z M1080.8,133.9c0.1-2,0.1-3.7,0-4.9c-0.1-1.3-0.4-2.2-0.9-2.7
		c-0.4-0.5-0.9-0.9-1.3-1s-1-0.2-1.7-0.1c-0.1,0-0.3-0.1-0.5,0c-0.2,0-0.7,0.2-1.3,0.5c-0.6,0.3-1.1,0.8-1.6,1.3
		c-0.5,0.6-0.9,1.6-1.4,3s-0.8,3-0.9,4.9c-0.1,2.4-0.1,4.5,0,6.1c0.2,1.6,0.5,2.8,0.9,3.5c0.5,0.7,0.9,1.2,1.4,1.4s1,0.4,1.8,0.4
		s1.6-0.4,2.3-1.3c0.7-0.8,1.4-2.2,1.9-4.1C1080.2,138.8,1080.6,136.5,1080.8,133.9z"/>
	<path class="st14" d="M1094.1,146.2c1-1,2.3-1.5,3.7-1.5c1.5,0,2.7,0.5,3.7,1.5s1.5,2.3,1.5,3.7c0,1.5-0.5,2.7-1.5,3.7
		s-2.3,1.5-3.7,1.5c-1.5,0-2.7-0.5-3.7-1.5s-1.5-2.3-1.5-3.7C1092.5,148.5,1093.1,147.2,1094.1,146.2z M1098.5,141.3
		c-2.8,0-4.6-2.1-5.4-6.3l-0.2-1.8v-23c0-0.1,0-0.3,0-0.6c0-0.2,0.1-0.7,0.4-1.3c0.2-0.6,0.5-1.1,0.8-1.6s0.8-0.9,1.5-1.3
		s1.5-0.6,2.4-0.6s1.7,0.2,2.3,0.6c0.6,0.4,1.1,0.8,1.4,1.3s0.5,1,0.7,1.5s0.3,1,0.3,1.4v0.5v20.7c0,0.3,0.1,0.7,0.1,1.2
		s0,1.3-0.1,2.5s-0.2,2.3-0.5,3.2c-0.2,0.9-0.7,1.7-1.3,2.5C1100.3,140.9,1099.5,141.3,1098.5,141.3z"/>
</g>
<g>
	<path class="st14" d="M512.4,224.3c2.2-0.5,4-0.6,5.7-0.3c1.6,0.4,3,1.1,4.1,2.2s2.1,2.4,2.8,3.8c0.7,1.4,1.3,2.9,1.7,4.5
		s0.7,3,0.9,4.3c0.2,1.3,0.3,2.4,0.4,3.2l0.1,1.3c-0.4,3.5-1,6.6-1.9,9.1c-0.9,2.6-1.8,4.5-2.9,5.9c-1.1,1.3-2.2,2.4-3.4,3.2
		c-1.2,0.8-2.4,1.2-3.5,1.3c-1.1,0.1-2.1,0.1-3.1,0c-0.9-0.1-1.6-0.2-2.2-0.4l-0.9-0.4c-1.4,1-2.7,1.3-3.6,1c-1-0.3-1.8-0.9-2.3-2
		c-0.6-1.1-1-2.2-1.2-3.5c-0.3-1.2-0.4-2.3-0.5-3.3l-0.1-1.4v-33c0-0.2,0-0.5,0-0.8s0.1-0.9,0.3-1.8c0.2-0.8,0.5-1.6,0.8-2.2
		s0.9-1.2,1.5-1.8c0.7-0.5,1.5-0.8,2.4-0.8c1.1,0,2,0.4,2.8,1.2c0.7,0.8,1.2,1.8,1.5,2.9c0.2,1.2,0.4,2.3,0.5,3.5
		c0.1,1.2,0.1,2.1,0.1,2.9L512.4,224.3z M512.4,252.8l1.7,0.9c3.1,1.1,5.1-0.4,6-4.6c0.3-1.5,0.4-3.4,0.4-5.6c0-2.1-0.2-3.9-0.5-5.5
		c-0.3-1.6-0.7-2.8-1.2-3.7c-0.5-0.9-1-1.6-1.6-2.2s-1.1-0.9-1.7-1.1c-0.6-0.2-1.1-0.3-1.5-0.3c-0.5,0-0.8,0-1.1,0.1l-0.4,0.1
		L512.4,252.8L512.4,252.8L512.4,252.8z"/>
	<path class="st14" d="M550.5,223.7c1,0,1.8,0.4,2.6,1.2c0.8,0.8,1.3,1.7,1.7,2.7s0.7,2.2,0.9,3.5c0.2,1.3,0.4,2.2,0.4,2.7
		s0.1,0.9,0.1,1.3v20.7c0,0.2,0,0.5,0,0.8s-0.1,0.9-0.4,1.8s-0.5,1.6-0.8,2.2c-0.3,0.6-0.8,1.2-1.5,1.8c-0.7,0.6-1.5,0.8-2.4,0.8
		c-1.6,0-2.9-0.8-3.7-2.5c-1.9,1.6-4.4,2.4-7.5,2.4c-1.9,0-3.4-0.6-4.6-1.7c-1.2-1.1-2.1-3.1-2.8-5.8c-0.7-2.7-1.1-6.1-1.3-10.2
		c-0.2-4.1-0.3-9.3-0.1-15.6c0-0.1,0-0.2,0-0.4c0-0.1,0-0.4,0.1-0.8s0.2-0.8,0.3-1.2c0.1-0.4,0.3-0.8,0.5-1.3
		c0.2-0.5,0.5-0.9,0.8-1.2c0.3-0.3,0.7-0.6,1.2-0.8c0.5-0.2,1-0.3,1.7-0.3c0.8,0,1.5,0.4,2.1,1.2c0.6,0.8,1,1.8,1.3,2.9
		c0.3,1.1,0.5,2.3,0.7,3.4c0.2,1.2,0.3,2.1,0.3,2.9v1.2c0,0.4,0,0.9,0,1.6s0,2,0.1,3.9s0.2,3.6,0.5,5.1c0.3,1.6,0.6,3.1,1,4.7
		s1,2.7,1.9,3.4s1.9,0.9,3,0.5l0.1-0.1v-16.3c0-0.2-0.1-0.5-0.1-0.8c0-0.4,0-1,0-2.1c0-1,0-2,0.1-2.9c0-0.9,0.2-1.9,0.4-3
		c0.2-1.1,0.4-2.1,0.7-2.8c0.3-0.8,0.7-1.5,1.2-2C549.1,224,549.8,223.7,550.5,223.7z"/>
	<path class="st14" d="M580.7,244.7c1.2,1.1,2.2,2.3,2.8,3.6c0.6,1.3,1,2.5,1,3.6c0,1.2-0.1,2.1-0.3,2.9c-0.2,0.8-0.4,1.5-0.7,2.3
		c-0.8,1.7-1.8,3.2-3.1,4.3c-1.3,1.1-2.5,1.7-3.7,1.7c-7.6,0-12.6-1.2-15-3.6c-1-1-1.4-2.1-1.3-3.5c0.2-2.3,0.9-3.8,2.2-4.6
		c1-0.6,1.9-0.7,2.9-0.4l0.1,0.1h0.1c0.1,0.1,0.3,0.3,0.5,0.5c0.2,0.2,0.6,0.6,1.2,1.1c0.6,0.5,1.2,1,1.8,1.3
		c0.6,0.4,1.3,0.6,2.1,0.9c0.8,0.2,1.5,0.2,2.3,0c1.1-0.3,1.7-0.7,1.9-1.3c0-0.3,0-0.6-0.1-1s-0.3-0.7-0.5-1
		c-0.2-0.3-0.4-0.6-0.7-0.9c-0.3-0.3-0.5-0.5-0.6-0.6s-0.2-0.2-0.3-0.3c-0.9-0.7-2-1.6-3.4-2.7c-1.3-1.1-3.2-2.8-5.6-5.1
		c-2.4-2.3-3.9-4.1-4.6-5.5c-0.6-1.2-0.9-2.5-0.7-3.9c0.2-1.5,0.7-2.8,1.6-4.1c2.3-3.3,6.2-5,11.6-5c3.7,0,6.3,0.9,7.8,2.7
		c0.6,0.7,1,1.6,1.1,2.7s0.1,1.8,0.1,2.3c-0.1,0.5-0.2,0.8-0.3,1.1h-0.1c-0.7,1.2-1.6,1.8-2.5,2c-1,0.2-2.5-0.2-4.5-1.3
		c-0.8-0.4-1.4-0.7-1.8-0.9c-0.4-0.2-0.9-0.2-1.5-0.2s-1.1,0.3-1.5,0.7c-0.6,0.6-0.8,1.2-0.8,1.8c0,0.4,0.3,0.9,0.8,1.4
		s1,0.9,1.5,1.3s1.4,1,2.7,1.8C576.3,241.3,578.8,243.1,580.7,244.7z"/>
	<path class="st14" d="M609.5,251.8c0.8,0.2,1.3,0.5,1.7,1c0.3,0.5,0.5,1,0.4,1.5s-0.2,1-0.4,1.5c-0.2,0.5-0.4,0.9-0.6,1.2l-0.4,0.5
		c-0.1,0.1-0.3,0.3-0.6,0.6c-0.2,0.2-0.8,0.7-1.5,1.3c-0.7,0.6-1.6,1.2-2.4,1.7s-1.8,0.9-3,1.3c-1.2,0.4-2.4,0.6-3.5,0.6
		c-2.1,0-4.1-0.9-6.1-2.7c-2-1.8-3.6-4.2-4.9-7.2c-1.3-3-1.9-6.3-1.9-9.8c0-5.4,1.4-10.1,4.1-13.9c2.7-3.9,6.2-5.8,10.3-5.8
		c1.2,0,2.3,0.2,3.3,0.6c1.1,0.4,1.9,0.9,2.7,1.5c0.7,0.6,1.4,1.3,2,2.1c0.6,0.8,1.1,1.5,1.5,2.3s0.7,1.5,1,2.1
		c0.3,0.6,0.4,1.2,0.5,1.5l0.1,0.6c0.2,0.7,0.3,1.4,0.3,2s-0.1,1.1-0.2,1.5c-0.1,0.4-0.3,0.8-0.4,1.1c-0.1,0.3-0.3,0.6-0.5,0.8
		c-0.2,0.2-0.4,0.3-0.5,0.5c-0.2,0.1-0.3,0.2-0.5,0.2l-0.1,0.1c-1.2,0.5-2.3,0.6-3.2,0.4s-1.7-0.8-2.3-1.7c-0.6-0.8-1.2-1.7-1.8-2.6
		s-1.1-1.8-1.5-2.5s-1-1.2-1.7-1.4c-0.7-0.2-1.4,0.1-2.2,0.8c-1.6,1.5-2.6,3.6-2.8,6.4c-0.2,2.8,0.1,5.4,1,8s2.1,4.5,3.7,5.7
		c1,0.9,2,1.2,3,1s1.8-0.6,2.4-1.2c0.6-0.6,1.4-1.1,2.3-1.6C607.7,251.6,608.6,251.5,609.5,251.8z"/>
	<path class="st14" d="M640.6,237.9v19.2c-0.1,1.8-0.4,3.2-1,4.2s-1.2,1.6-1.9,1.7c-0.7,0.1-1.4,0.1-2.1,0s-1.2-0.4-1.7-0.6
		l-0.7-0.4c-0.4,0.4-1.1,0.7-2.2,0.9c-1.1,0.2-2.4,0.3-3.8,0.2c-1.4-0.1-2.9-0.4-4.4-0.9c-1.5-0.6-2.9-1.3-4.1-2.2
		c-1.2-0.9-2.2-2.3-2.9-4c-0.7-1.7-1-3.7-0.9-6c0.1-1.9,0.5-3.6,1.2-5.1c0.6-1.5,1.4-2.7,2.3-3.6c0.9-0.9,1.9-1.7,2.9-2.3
		s2.1-1.1,3.1-1.3c1-0.2,2-0.4,2.8-0.5c0.8-0.1,1.5-0.2,2-0.2h0.8c-0.3-1.6-1.1-2.8-2.2-3.4s-2.4-0.9-3.7-0.8
		c-1.4,0.1-2.8,0.4-4.1,0.7c-1.4,0.3-2.6,0.5-3.7,0.4c-1.1,0-1.8-0.4-2.1-1.1c-0.2-0.8-0.3-1.6-0.2-2.4s0.5-1.6,1.3-2.4
		c0.8-0.8,1.7-1.5,2.8-2.1s2.7-1.1,4.6-1.4c1.9-0.4,4.1-0.5,6.4-0.5c1.6,0,3.1,0.3,4.4,0.8s2.4,1.2,3.1,2.1c0.8,0.8,1.4,1.8,2,2.8
		s0.9,2,1.2,3c0.2,1,0.4,1.9,0.5,2.7c0.1,0.8,0.1,1.5,0.1,2v0.5L640.6,237.9L640.6,237.9z M622.9,246.1c-0.7,1.3-0.9,2.6-0.8,4
		s0.6,2.5,1.3,3.5c0.7,1,1.6,1.8,2.7,2.6c1,0.7,2.1,1.1,3.2,1.2c1.1,0,2.1-0.1,3-0.6l-1-11.1c-0.1-0.1-0.2-0.2-0.3-0.4
		c-0.1-0.1-0.4-0.4-0.8-0.8c-0.4-0.4-0.8-0.7-1.2-0.9c-0.4-0.2-0.8-0.4-1.4-0.6c-0.5-0.2-1.1-0.2-1.6-0.1s-1.1,0.4-1.6,0.9
		C623.9,244.4,623.4,245.1,622.9,246.1z"/>
	<path class="st14" d="M659.9,223.7c1.9,0,3.5,0.5,4.9,1.6c1.3,1.1,2.3,2.4,2.8,3.9c0.6,1.5,1,3.1,1.2,4.8c0.2,1.6,0.3,3.1,0.3,4.3
		c-0.1,1.2-0.2,2.1-0.4,2.5c-0.1,0.4-0.4,0.7-0.9,1s-1,0.5-1.6,0.6s-1.2,0-1.9-0.3c-0.6-0.2-1.2-0.8-1.9-1.6
		c-0.6-0.8-1.1-1.9-1.4-3.2c-0.3-1-0.6-1.8-1-2.5s-0.8-1.2-1.2-1.6s-0.8-0.6-1.2-0.9c-0.4-0.2-0.8-0.3-1.2-0.3s-0.7,0-1,0
		c-0.3,0-0.5,0.1-0.7,0.1l-0.2,0.1c0,0.7,0,2.1,0.1,4c0,1.9,0.1,3.8,0.1,5.4c0,1.7,0,3.6,0,5.8c0,2.2-0.1,4.2-0.3,5.9
		c-0.2,1.7-0.4,3.4-0.7,4.9c-0.3,1.5-0.7,2.7-1.3,3.6s-1.2,1.3-2.1,1.3c-1.1,0-2-0.4-2.7-1.1c-0.8-0.7-1.3-1.6-1.7-2.7
		s-0.6-2.1-0.8-3.1c-0.2-1-0.3-1.9-0.4-2.7v-1.1V231c0-1.3,0.1-2.6,0.4-3.6c0.3-1.1,0.8-2,1.5-2.8c0.7-0.8,1.6-1.2,2.7-1.2
		s1.9,0.2,2.6,0.6c0.6,0.4,1,0.8,1.2,1.2l0.2,0.6c0.6-0.7,1.5-1.3,2.6-1.6c1.1-0.4,2.1-0.6,2.9-0.6L659.9,223.7z"/>
	<path class="st14" d="M694.9,252.1c1.2,0.6,1.7,1.3,1.6,2.1c-0.1,0.8-0.4,1.6-0.9,2.3c-0.5,0.7-0.8,1.1-0.9,1.1
		c-2.7,2.4-5.2,3.9-7.5,4.8c-2.3,0.8-4.3,1-5.9,0.5s-3-1.4-4.3-2.5c-1.3-1.2-2.3-2.5-3-4.2c-0.7-1.6-1.4-3.2-1.9-4.6s-0.9-2.7-1-3.7
		l-0.3-1.5c-0.4-3-0.4-5.7-0.2-8c0.3-2.3,0.8-4.3,1.6-5.9c0.8-1.6,1.8-3,2.8-4s2.2-1.9,3.4-2.6c1.2-0.6,2.3-1.1,3.2-1.4
		c1-0.3,1.8-0.6,2.4-0.6l0.9-0.1c0.1,0,0.3,0,0.6,0c0.2,0,0.7,0,1.4,0.1c0.7,0.1,1.4,0.3,2.1,0.5c0.6,0.2,1.4,0.6,2.2,1.2
		c0.8,0.6,1.6,1.3,2.2,2.2c0.6,0.9,1.2,2.1,1.8,3.6c0.5,1.5,0.9,3.2,1.1,5.1s0,3.5-0.5,4.9c-0.6,1.4-1.3,2.4-2.3,3.1
		s-2.1,1.2-3.4,1.5c-1.2,0.4-2.5,0.5-3.8,0.5c-1.3,0-2.5-0.1-3.6-0.2s-2-0.2-2.7-0.4l-1-0.2c0.1,2,0.9,4,2.4,5.9s2.9,3,4.4,3.2
		c0.6,0.1,1.2-0.1,2-0.5c0.8-0.4,1.5-0.8,2.1-1.3s1.4-0.8,2.3-1.1C693.2,251.6,694.1,251.7,694.9,252.1z M679.2,235.8
		c-0.6,1.7-0.6,2.9,0,3.4c0.3,0.2,1,0.5,2.1,0.8s2.3,0.6,3.6,0.8c1.3,0.2,2.5,0,3.6-0.6s1.6-1.5,1.7-2.9c0-1.8-0.8-3-2.4-3.6
		c-1.7-0.6-3.4-0.6-5.2-0.1C680.7,234.2,679.6,234.9,679.2,235.8z"/>
	<path class="st14" d="M730.4,223.8c1.9,0,3.4,0.6,4.6,1.7s2.1,3,2.8,5.8c0.7,2.7,1.1,6.1,1.3,10.2c0.2,4.1,0.2,9.3,0.1,15.6
		c0,0.1,0,0.4,0,0.6s-0.1,0.8-0.3,1.5c-0.2,0.7-0.4,1.3-0.6,1.8c-0.3,0.5-0.7,1-1.3,1.4s-1.3,0.6-2.1,0.6c-0.8,0-1.5-0.4-2.2-1.2
		c-0.6-0.8-1.1-1.8-1.3-2.9c-0.3-1.2-0.5-2.3-0.6-3.4c-0.2-1.1-0.3-2.1-0.3-2.8l-0.1-1.2c0-0.4,0.1-0.9,0.1-1.6s0-2-0.1-3.9
		c0-1.9-0.2-3.6-0.5-5.1c-0.3-1.6-0.6-3.1-1-4.7s-1.1-2.7-1.9-3.4c-0.8-0.7-1.8-0.9-3-0.5c0,0-0.1,0-0.3,0.1
		c1.1,4.8,1.4,13.1,1.2,24.6c0,0.1,0,0.2,0,0.4s0,0.4-0.1,0.8c0,0.4-0.1,0.8-0.2,1.2c-0.1,0.4-0.3,0.8-0.5,1.3
		c-0.2,0.5-0.5,0.9-0.8,1.2c-0.3,0.3-0.7,0.6-1.2,0.9c-0.5,0.2-1,0.4-1.6,0.4c-0.9,0-1.6-0.4-2.2-1.2c-0.6-0.8-1-1.8-1.3-2.9
		c-0.3-1.1-0.5-2.3-0.6-3.4c-0.1-1.1-0.2-2.1-0.3-2.8v-1.2c0-0.4,0-0.9,0-1.6s0-2,0-3.9s-0.2-3.6-0.4-5.1c-0.3-1.6-0.6-3.1-1-4.7
		s-1.1-2.7-1.9-3.4c-0.9-0.7-1.8-0.9-3-0.5h-0.1v16.3c0,0.2,0,0.5,0,0.8c0,0.4,0,1,0,2s0,1.9-0.1,2.8s-0.2,1.9-0.4,3.1
		c-0.2,1.1-0.4,2.1-0.7,2.9c-0.3,0.8-0.7,1.5-1.3,2c-0.5,0.6-1.2,0.8-1.9,0.8c-0.5,0-1-0.1-1.5-0.4s-0.9-0.6-1.3-1
		c-0.4-0.4-0.7-0.9-1-1.5c-0.3-0.6-0.5-1.2-0.7-1.8c-0.2-0.6-0.4-1.2-0.5-1.9c-0.1-0.6-0.3-1.2-0.3-1.8c-0.1-0.6-0.1-1.1-0.2-1.5
		c0-0.5-0.1-0.8-0.1-1v-0.4v-20.7c0-0.2,0-0.5,0.1-0.8c0-0.3,0.2-0.9,0.4-1.8c0.2-0.8,0.5-1.6,0.8-2.2c0.3-0.6,0.9-1.2,1.5-1.8
		c0.7-0.6,1.5-0.8,2.3-0.8c1.6,0,2.9,0.8,3.7,2.5c2-1.6,4.5-2.4,7.5-2.4c2.5,0,4.5,1.1,5.8,3.3C723.9,224.9,726.8,223.8,730.4,223.8
		z"/>
	<path class="st14" d="M755,223.8c1.9,0.1,3.6,0.6,5.1,1.5c1.5,0.8,2.6,1.8,3.5,3s1.6,2.4,2.2,3.8c0.6,1.4,1,2.7,1.3,4
		c0.2,1.3,0.4,2.5,0.5,3.6s0.1,2,0.1,2.7l-0.1,1c-0.3,3.4-0.9,6.4-1.8,8.9c-0.9,2.5-1.8,4.5-2.9,5.8c-1,1.3-2.2,2.4-3.5,3.2
		c-1.3,0.8-2.3,1.3-3.2,1.5c-0.8,0.2-1.6,0.3-2.4,0.3c-0.7,0-1.5-0.1-2.3-0.4c-0.8-0.2-1.8-0.8-3-1.7c-1.2-0.9-2.2-2-3.1-3.4
		c-0.9-1.4-1.6-3.5-2.2-6.2c-0.6-2.7-0.9-5.8-0.8-9.3c0.1-2.5,0.4-4.8,0.9-6.8c0.5-2.1,1.1-3.7,1.9-5c0.7-1.2,1.5-2.3,2.4-3.2
		c0.9-0.9,1.7-1.6,2.6-2s1.7-0.8,2.4-1c0.7-0.2,1.3-0.4,1.7-0.4h0.7L755,223.8L755,223.8z M759.3,242.1c0.1-2,0.1-3.7,0-4.9
		c-0.1-1.3-0.4-2.2-0.9-2.7s-0.9-0.9-1.3-1s-1-0.2-1.7-0.1c-0.1,0-0.3-0.1-0.5,0c-0.2,0-0.7,0.2-1.3,0.5s-1.1,0.8-1.6,1.3
		c-0.5,0.6-0.9,1.6-1.4,3s-0.8,3-0.9,4.9c-0.1,2.4-0.1,4.5,0,6.1s0.5,2.8,0.9,3.5c0.5,0.7,0.9,1.2,1.4,1.4c0.5,0.2,1,0.4,1.8,0.4
		c0.8,0,1.6-0.4,2.3-1.3c0.7-0.8,1.4-2.2,1.9-4.1C758.7,247,759.1,244.7,759.3,242.1z"/>
	<path class="st14" d="M791.2,244.7c1.2,1.1,2.2,2.3,2.8,3.6c0.6,1.3,1,2.5,1,3.6c0,1.2-0.1,2.1-0.3,2.9c-0.2,0.8-0.4,1.5-0.7,2.3
		c-0.8,1.7-1.8,3.2-3.1,4.3c-1.3,1.1-2.5,1.7-3.7,1.7c-7.6,0-12.6-1.2-15-3.6c-1-1-1.4-2.1-1.3-3.5c0.2-2.3,0.9-3.8,2.2-4.6
		c1-0.6,1.9-0.7,2.9-0.4l0.1,0.1h0.1c0.1,0.1,0.3,0.3,0.5,0.5c0.2,0.2,0.6,0.6,1.2,1.1c0.6,0.5,1.2,1,1.8,1.3
		c0.6,0.4,1.3,0.6,2.1,0.9c0.8,0.2,1.5,0.2,2.3,0c1.1-0.3,1.7-0.7,1.9-1.3c0-0.3,0-0.6-0.1-1s-0.3-0.7-0.5-1
		c-0.2-0.3-0.4-0.6-0.7-0.9c-0.3-0.3-0.5-0.5-0.6-0.6s-0.2-0.2-0.3-0.3c-0.9-0.7-2-1.6-3.4-2.7c-1.3-1.1-3.2-2.8-5.6-5.1
		c-2.4-2.3-3.9-4.1-4.6-5.5c-0.6-1.2-0.9-2.5-0.7-3.9c0.2-1.5,0.7-2.8,1.6-4.1c2.3-3.3,6.2-5,11.6-5c3.7,0,6.3,0.9,7.8,2.7
		c0.6,0.7,1,1.6,1.1,2.7s0.1,1.8,0.1,2.3c-0.1,0.5-0.2,0.8-0.3,1.1h-0.1c-0.7,1.2-1.6,1.8-2.5,2c-1,0.2-2.5-0.2-4.5-1.3
		c-0.8-0.4-1.4-0.7-1.8-0.9c-0.4-0.2-0.9-0.2-1.5-0.2s-1.1,0.3-1.5,0.7c-0.6,0.6-0.8,1.2-0.8,1.8c0,0.4,0.3,0.9,0.8,1.4
		s1,0.9,1.5,1.3s1.4,1,2.7,1.8C786.8,241.3,789.3,243.1,791.2,244.7z"/>
	<path class="st14" d="M840.6,252.1c1.2,0.6,1.7,1.3,1.6,2.1c-0.1,0.8-0.4,1.6-0.9,2.3c-0.5,0.7-0.8,1.1-0.9,1.1
		c-2.7,2.4-5.2,3.9-7.5,4.8c-2.3,0.8-4.3,1-5.9,0.5c-1.6-0.5-3-1.4-4.3-2.5c-1.3-1.2-2.3-2.5-3-4.2c-0.7-1.6-1.4-3.2-1.9-4.6
		s-0.9-2.7-1-3.7l-0.3-1.5c-0.4-3-0.4-5.7-0.2-8c0.3-2.3,0.8-4.3,1.6-5.9c0.8-1.6,1.8-3,2.8-4s2.2-1.9,3.4-2.6
		c1.2-0.6,2.3-1.1,3.2-1.4c1-0.3,1.8-0.6,2.4-0.6l0.9-0.1c0.1,0,0.3,0,0.6,0c0.2,0,0.7,0,1.4,0.1c0.7,0.1,1.4,0.3,2.1,0.5
		c0.6,0.2,1.4,0.6,2.2,1.2c0.8,0.6,1.6,1.3,2.2,2.2c0.6,0.9,1.2,2.1,1.8,3.6c0.5,1.5,0.9,3.2,1.1,5.1c0.2,1.9,0,3.5-0.5,4.9
		c-0.6,1.4-1.3,2.4-2.3,3.1s-2.1,1.2-3.4,1.5c-1.2,0.4-2.5,0.5-3.8,0.5c-1.3,0-2.5-0.1-3.6-0.2s-2-0.2-2.7-0.4l-1-0.2
		c0.1,2,0.9,4,2.4,5.9s2.9,3,4.4,3.2c0.6,0.1,1.2-0.1,2-0.5c0.8-0.4,1.5-0.8,2.1-1.3s1.4-0.8,2.3-1.1
		C838.8,251.6,839.7,251.7,840.6,252.1z M824.9,235.8c-0.6,1.7-0.6,2.9,0,3.4c0.3,0.2,1,0.5,2.1,0.8s2.3,0.6,3.6,0.8
		c1.3,0.2,2.5,0,3.6-0.6s1.6-1.5,1.7-2.9c0-1.8-0.8-3-2.4-3.6c-1.7-0.6-3.4-0.6-5.2-0.1C826.4,234.2,825.3,234.9,824.9,235.8z"/>
	<path class="st14" d="M861.7,223.8c1.9,0,3.4,0.6,4.6,1.7c1.2,1.2,2.1,3.1,2.8,5.8c0.7,2.7,1.1,6.1,1.3,10.2
		c0.2,4.1,0.2,9.3,0.1,15.6c0,0.1,0,0.2,0,0.4s0,0.4-0.1,0.9c0,0.4-0.1,0.8-0.2,1.2c-0.1,0.4-0.3,0.8-0.5,1.3
		c-0.2,0.5-0.5,0.9-0.8,1.2c-0.3,0.3-0.7,0.6-1.2,0.9c-0.5,0.2-1,0.4-1.6,0.4s-1.1-0.2-1.6-0.6s-0.9-1-1.2-1.7
		c-0.3-0.7-0.6-1.5-0.8-2.3c-0.2-0.8-0.4-1.6-0.5-2.4c-0.1-0.8-0.2-1.6-0.3-2.3c-0.1-0.7-0.1-1.3-0.1-1.7v-0.6c0-0.4,0-0.9,0-1.6
		s0-2,0-3.9s-0.2-3.6-0.4-5.1c-0.3-1.6-0.6-3.1-1-4.7s-1.1-2.7-1.9-3.4c-0.9-0.7-1.8-0.9-3-0.4h-0.1V249c0,0.2,0,0.5,0,0.8
		c0,0.4,0,1,0,2.1c0,1,0,2-0.1,2.9s-0.2,1.9-0.4,3c-0.2,1.1-0.4,2.1-0.7,2.9c-0.3,0.8-0.7,1.5-1.3,2.1c-0.5,0.6-1.2,0.8-1.9,0.8
		c-1,0-1.8-0.4-2.6-1.2c-0.7-0.8-1.3-1.7-1.7-2.8c-0.4-1.1-0.7-2.2-0.9-3.3c-0.2-1.1-0.4-2.1-0.4-2.9l-0.1-1.2V231
		c0-0.2,0-0.5,0.1-0.8c0-0.3,0.2-0.9,0.4-1.8c0.2-0.8,0.5-1.6,0.8-2.2c0.3-0.6,0.9-1.2,1.5-1.8c0.7-0.5,1.5-0.8,2.3-0.8
		c1.6,0,2.9,0.8,3.7,2.4C856.2,224.6,858.7,223.8,861.7,223.8z"/>
	<path class="st14" d="M910.3,223.8c1.9,0,3.4,0.6,4.6,1.7c1.2,1.2,2.1,3.1,2.8,5.8c0.7,2.7,1.1,6.1,1.3,10.2
		c0.2,4.1,0.2,9.3,0.1,15.6c0,0.1,0,0.2,0,0.4s0,0.4-0.1,0.9c0,0.4-0.1,0.8-0.2,1.2c-0.1,0.4-0.3,0.8-0.5,1.3
		c-0.2,0.5-0.5,0.9-0.8,1.2c-0.3,0.3-0.7,0.6-1.2,0.9c-0.5,0.2-1,0.4-1.6,0.4s-1.1-0.2-1.6-0.6s-0.9-1-1.2-1.7
		c-0.3-0.7-0.6-1.5-0.8-2.3c-0.2-0.8-0.4-1.6-0.5-2.4c-0.1-0.8-0.2-1.6-0.3-2.3c-0.1-0.7-0.1-1.3-0.1-1.7v-0.6c0-0.4,0-0.9,0-1.6
		s0-2,0-3.9s-0.2-3.6-0.4-5.1c-0.3-1.6-0.6-3.1-1-4.7s-1.1-2.7-1.9-3.4c-0.9-0.7-1.8-0.9-3-0.4h-0.1V249c0,0.2,0,0.5,0,0.8
		c0,0.4,0,1,0,2.1c0,1,0,2-0.1,2.9s-0.2,1.9-0.4,3c-0.2,1.1-0.4,2.1-0.7,2.9c-0.3,0.8-0.7,1.5-1.3,2.1c-0.5,0.6-1.2,0.8-1.9,0.8
		c-1,0-1.8-0.4-2.6-1.2c-0.7-0.8-1.3-1.7-1.7-2.8c-0.4-1.1-0.7-2.2-0.9-3.3c-0.2-1.1-0.4-2.1-0.4-2.9l-0.1-1.2V231
		c0-0.2,0-0.5,0.1-0.8c0-0.3,0.2-0.9,0.4-1.8c0.2-0.8,0.5-1.6,0.8-2.2c0.3-0.6,0.9-1.2,1.5-1.8c0.7-0.5,1.5-0.8,2.3-0.8
		c1.6,0,2.9,0.8,3.7,2.4C904.7,224.6,907.2,223.8,910.3,223.8z"/>
	<path class="st14" d="M942.5,223.7c1,0,1.8,0.4,2.6,1.2c0.7,0.8,1.3,1.7,1.7,2.7s0.7,2.2,0.9,3.5c0.2,1.3,0.4,2.2,0.4,2.7
		s0.1,0.9,0.1,1.3v20.7c0,0.2,0,0.5,0,0.8s-0.1,0.9-0.4,1.8c-0.2,0.8-0.5,1.6-0.8,2.2c-0.3,0.6-0.8,1.2-1.5,1.8
		c-0.7,0.6-1.5,0.8-2.4,0.8c-1.6,0-2.9-0.8-3.7-2.5c-1.9,1.6-4.4,2.4-7.5,2.4c-1.9,0-3.4-0.6-4.6-1.7c-1.2-1.1-2.1-3.1-2.8-5.8
		c-0.7-2.7-1.1-6.1-1.3-10.2c-0.2-4.1-0.3-9.3-0.1-15.6c0-0.1,0-0.2,0-0.4c0-0.1,0-0.4,0.1-0.8s0.2-0.8,0.3-1.2
		c0.1-0.4,0.3-0.8,0.5-1.3c0.2-0.5,0.5-0.9,0.8-1.2c0.3-0.3,0.7-0.6,1.2-0.8c0.5-0.2,1-0.3,1.7-0.3c0.8,0,1.5,0.4,2.1,1.2
		c0.6,0.8,1,1.8,1.3,2.9c0.3,1.1,0.5,2.3,0.7,3.4c0.2,1.2,0.3,2.1,0.3,2.9v1.2c0,0.4,0,0.9,0,1.6s0,2,0.1,3.9s0.2,3.6,0.5,5.1
		c0.3,1.6,0.6,3.1,1,4.7s1,2.7,1.9,3.4c0.9,0.7,1.9,0.9,3,0.5l0.1-0.1v-16.3c0-0.2-0.1-0.5-0.1-0.8c0-0.4,0-1,0-2.1c0-1,0-2,0.1-2.9
		c0-0.9,0.2-1.9,0.4-3c0.2-1.1,0.4-2.1,0.7-2.8c0.3-0.7,0.7-1.5,1.2-2C941.1,224,941.7,223.7,942.5,223.7z"/>
	<path class="st14" d="M975.6,252.1c1.2,0.6,1.7,1.3,1.6,2.1c-0.1,0.8-0.4,1.6-0.9,2.3c-0.5,0.7-0.8,1.1-0.9,1.1
		c-2.7,2.4-5.2,3.9-7.5,4.8c-2.3,0.8-4.3,1-5.9,0.5c-1.6-0.5-3-1.4-4.3-2.5c-1.3-1.2-2.3-2.5-3-4.2c-0.7-1.6-1.4-3.2-1.9-4.6
		s-0.9-2.7-1-3.7l-0.3-1.5c-0.4-3-0.4-5.7-0.2-8c0.3-2.3,0.8-4.3,1.6-5.9c0.8-1.6,1.8-3,2.8-4s2.2-1.9,3.4-2.6
		c1.2-0.6,2.3-1.1,3.2-1.4c1-0.3,1.8-0.6,2.4-0.6l0.9-0.1c0.1,0,0.3,0,0.6,0c0.2,0,0.7,0,1.4,0.1c0.7,0.1,1.4,0.3,2.1,0.5
		c0.6,0.2,1.4,0.6,2.2,1.2c0.8,0.6,1.6,1.3,2.2,2.2c0.6,0.9,1.2,2.1,1.8,3.6c0.5,1.5,0.9,3.2,1.1,5.1c0.2,1.9,0,3.5-0.5,4.9
		c-0.6,1.4-1.3,2.4-2.3,3.1s-2.1,1.2-3.4,1.5c-1.2,0.4-2.5,0.5-3.8,0.5c-1.3,0-2.5-0.1-3.6-0.2s-2-0.2-2.7-0.4l-1-0.2
		c0.1,2,0.9,4,2.4,5.9s2.9,3,4.4,3.2c0.6,0.1,1.2-0.1,2-0.5c0.8-0.4,1.5-0.8,2.1-1.3s1.4-0.8,2.3-1.1
		C973.8,251.6,974.7,251.7,975.6,252.1z M959.9,235.8c-0.6,1.7-0.6,2.9,0,3.4c0.3,0.2,1,0.5,2.1,0.8s2.3,0.6,3.6,0.8
		c1.3,0.2,2.5,0,3.6-0.6s1.6-1.5,1.7-2.9c0-1.8-0.8-3-2.4-3.6c-1.7-0.6-3.4-0.6-5.2-0.1C961.4,234.2,960.3,234.9,959.9,235.8z"/>
	<path class="st14" d="M1000.9,244.7c1.2,1.1,2.2,2.3,2.8,3.6c0.6,1.3,1,2.5,1,3.6c0,1.2-0.1,2.1-0.3,2.9c-0.2,0.8-0.4,1.5-0.7,2.3
		c-0.8,1.7-1.8,3.2-3.1,4.3c-1.3,1.1-2.5,1.7-3.7,1.7c-7.6,0-12.6-1.2-15-3.6c-1-1-1.4-2.1-1.3-3.5c0.2-2.3,0.9-3.8,2.2-4.6
		c1-0.6,1.9-0.7,2.9-0.4l0.1,0.1h0.1c0.1,0.1,0.3,0.3,0.5,0.5c0.2,0.2,0.6,0.6,1.2,1.1c0.6,0.5,1.2,1,1.8,1.3
		c0.6,0.4,1.3,0.6,2.1,0.9c0.8,0.2,1.5,0.2,2.3,0c1.1-0.3,1.7-0.7,1.9-1.3c0-0.3,0-0.6-0.1-1s-0.3-0.7-0.5-1
		c-0.2-0.3-0.4-0.6-0.7-0.9c-0.3-0.3-0.5-0.5-0.6-0.6s-0.2-0.2-0.3-0.3c-0.9-0.7-2-1.6-3.4-2.7c-1.3-1.1-3.2-2.8-5.6-5.1
		c-2.4-2.3-3.9-4.1-4.6-5.5c-0.6-1.2-0.9-2.5-0.7-3.9c0.2-1.5,0.7-2.8,1.6-4.1c2.3-3.3,6.2-5,11.6-5c3.7,0,6.3,0.9,7.8,2.7
		c0.6,0.7,1,1.6,1.1,2.7s0.1,1.8,0.1,2.3c-0.1,0.5-0.2,0.8-0.3,1.1h-0.1c-0.7,1.2-1.6,1.8-2.5,2c-1,0.2-2.5-0.2-4.5-1.3
		c-0.8-0.4-1.4-0.7-1.8-0.9c-0.4-0.2-0.9-0.2-1.5-0.2s-1.1,0.3-1.5,0.7c-0.6,0.6-0.8,1.2-0.8,1.8c0,0.4,0.3,0.9,0.8,1.4
		s1,0.9,1.5,1.3s1.4,1,2.7,1.8C996.5,241.3,999,243.1,1000.9,244.7z"/>
	<path class="st14" d="M1034.6,255.4c0,0.6,0,1.1-0.2,1.7s-0.4,1-0.7,1.4c-0.3,0.4-0.7,0.8-1,1.1c-0.4,0.3-0.8,0.6-1.2,0.8
		c-0.4,0.2-0.7,0.4-1.1,0.5c-0.3,0.1-0.6,0.3-0.8,0.4l-0.3,0.1c-0.1,0.1-0.2,0.2-0.4,0.3c-0.2,0.1-0.6,0.2-1.2,0.5
		c-0.6,0.2-1.4,0.4-2.1,0.5c-0.8,0.1-1.8,0.2-3.1,0.3c-1.3,0.1-2.7,0-4.1-0.2s-2.7-0.8-3.7-1.9s-1.7-2.3-2.1-3.7
		c-0.4-1.4-0.7-2.8-0.8-4.2c-0.2-1.4-0.2-2.6-0.2-3.5V248v-15.2c-4.7-0.2-7.1-1.3-7.1-3.2c0-0.9,0.3-1.7,0.8-2.3
		c0.5-0.6,1.2-1.2,2.1-1.5c0.9-0.4,1.6-0.6,2.3-0.8c0.6-0.1,1.3-0.3,1.9-0.4v-5.8c0-1.4,0.2-2.6,0.6-3.5s1-1.6,1.6-2
		s1.3-0.6,1.9-0.7c0.7-0.1,1.3,0,1.9,0.3c0.6,0.2,1,0.6,1.3,1c0.4,0.6,0.7,3.8,1.1,9.6c6.4-0.3,10.1,0.6,11.1,3
		c0.4,1,0.3,1.8-0.3,2.6c-0.6,0.7-1.6,1.3-3,1.7c-1.3,0.4-2.6,0.7-3.7,0.9c-1.1,0.2-2.3,0.4-3.6,0.5c0.5,9.6,1.1,15.6,1.6,17.9
		c0.2,1,0.6,1.8,0.9,2.4c0.4,0.6,0.8,1,1.2,1.3c0.4,0.2,0.9,0.3,1.3,0.4c0.5,0,0.9,0,1.3-0.2s0.8-0.3,1.2-0.5
		c0.3-0.2,0.6-0.4,0.8-0.5l0.3-0.3c0.1,0,0.3-0.1,0.5-0.1s0.6-0.1,1.2-0.2s1.1,0,1.5,0.1c0.5,0.1,0.9,0.4,1.3,0.9
		C1034.3,254,1034.5,254.6,1034.6,255.4z"/>
	<path class="st14" d="M1052.2,223.7c1.9,0,3.5,0.5,4.9,1.6c1.3,1.1,2.3,2.4,2.8,3.9c0.6,1.5,1,3.1,1.2,4.8c0.2,1.6,0.3,3.1,0.3,4.3
		c-0.1,1.2-0.2,2.1-0.4,2.5c-0.1,0.4-0.4,0.7-0.9,1s-1,0.5-1.6,0.6s-1.2,0-1.9-0.3c-0.6-0.2-1.2-0.8-1.9-1.6
		c-0.6-0.8-1.1-1.9-1.4-3.2c-0.3-1-0.6-1.8-1-2.5s-0.8-1.2-1.2-1.6c-0.4-0.4-0.8-0.6-1.2-0.9c-0.4-0.2-0.8-0.3-1.2-0.3
		c-0.4,0-0.7,0-1,0s-0.5,0.1-0.7,0.1l-0.2,0.1c0,0.7,0,2.1,0.1,4c0,1.9,0.1,3.8,0.1,5.4c0,1.7,0,3.6,0,5.8c0,2.2-0.1,4.2-0.3,5.9
		c-0.2,1.7-0.4,3.4-0.7,4.9c-0.3,1.5-0.7,2.7-1.3,3.6c-0.6,0.9-1.2,1.3-2.1,1.3c-1.1,0-2-0.4-2.7-1.1c-0.8-0.7-1.3-1.6-1.7-2.7
		c-0.4-1.1-0.6-2.1-0.8-3.1c-0.2-1-0.3-1.9-0.4-2.7v-1.1V231c0-1.3,0.1-2.6,0.4-3.6c0.3-1.1,0.8-2,1.5-2.8s1.6-1.2,2.7-1.2
		s1.9,0.2,2.6,0.6c0.6,0.4,1,0.8,1.2,1.2l0.2,0.6c0.6-0.7,1.5-1.3,2.6-1.6c1.1-0.4,2.1-0.6,2.9-0.6L1052.2,223.7z"/>
	<path class="st14" d="M1089.4,237.9v19.2c-0.1,1.8-0.4,3.2-1,4.2s-1.2,1.6-1.9,1.7c-0.7,0.1-1.4,0.1-2.1,0s-1.2-0.4-1.7-0.6
		l-0.7-0.4c-0.4,0.4-1.1,0.7-2.2,0.9c-1.1,0.2-2.4,0.3-3.8,0.2c-1.4-0.1-2.9-0.4-4.4-0.9c-1.5-0.6-2.9-1.3-4.1-2.2
		c-1.2-0.9-2.2-2.3-2.9-4c-0.7-1.7-1-3.7-0.9-6c0.1-1.9,0.5-3.6,1.2-5.1c0.6-1.5,1.4-2.7,2.3-3.6s1.9-1.7,2.9-2.3s2.1-1.1,3.1-1.3
		c1-0.2,2-0.4,2.8-0.5s1.5-0.2,2-0.2h0.8c-0.3-1.6-1.1-2.8-2.2-3.4s-2.4-0.9-3.7-0.8c-1.4,0.1-2.8,0.4-4.1,0.7
		c-1.4,0.3-2.6,0.5-3.7,0.4c-1.1,0-1.8-0.4-2.1-1.1c-0.2-0.8-0.3-1.6-0.2-2.4c0.1-0.8,0.5-1.6,1.3-2.4s1.7-1.5,2.8-2.1
		c1.1-0.6,2.7-1.1,4.6-1.4c1.9-0.4,4.1-0.5,6.4-0.5c1.6,0,3.1,0.3,4.4,0.8s2.4,1.2,3.1,2.1c0.8,0.8,1.4,1.8,2,2.8s0.9,2,1.2,3
		c0.2,1,0.4,1.9,0.5,2.7c0.1,0.8,0.1,1.5,0.1,2v0.5L1089.4,237.9L1089.4,237.9z M1071.8,246.1c-0.7,1.3-0.9,2.6-0.8,4
		s0.6,2.5,1.3,3.5c0.7,1,1.6,1.8,2.7,2.6c1,0.7,2.1,1.1,3.2,1.2c1.1,0,2.1-0.1,3-0.6l-1-11.1c-0.1-0.1-0.2-0.2-0.3-0.4
		c-0.1-0.1-0.4-0.4-0.8-0.8s-0.8-0.7-1.2-0.9c-0.4-0.2-0.8-0.4-1.4-0.6c-0.5-0.2-1.1-0.2-1.6-0.1s-1.1,0.4-1.6,0.9
		C1072.8,244.4,1072.2,245.1,1071.8,246.1z"/>
	<path class="st14" d="M1122.8,224.3c2.2-0.5,4-0.6,5.7-0.3c1.6,0.4,3,1.1,4.1,2.2s2.1,2.4,2.8,3.8c0.7,1.4,1.3,2.9,1.7,4.5
		c0.4,1.6,0.7,3,0.9,4.3s0.3,2.4,0.4,3.2l0.1,1.3c-0.4,3.5-1,6.6-1.9,9.1c-0.9,2.6-1.8,4.5-2.9,5.9c-1.1,1.3-2.2,2.4-3.4,3.2
		c-1.2,0.8-2.4,1.2-3.5,1.3c-1.1,0.1-2.1,0.1-3.1,0c-0.9-0.1-1.6-0.2-2.2-0.4l-0.9-0.4c-1.4,1-2.7,1.3-3.6,1c-1-0.3-1.8-0.9-2.3-2
		c-0.6-1.1-1-2.2-1.2-3.5c-0.3-1.2-0.4-2.3-0.5-3.3l-0.1-1.4v-33c0-0.2,0-0.5,0-0.8s0.1-0.9,0.3-1.8c0.2-0.8,0.5-1.6,0.8-2.2
		s0.9-1.2,1.5-1.8c0.7-0.5,1.5-0.8,2.4-0.8c1.1,0,2,0.4,2.8,1.2c0.7,0.8,1.2,1.8,1.5,2.9s0.4,2.3,0.5,3.5s0.1,2.1,0.1,2.9
		L1122.8,224.3z M1122.8,252.8l1.7,0.9c3.1,1.1,5.1-0.4,6-4.6c0.3-1.5,0.4-3.4,0.4-5.6c0-2.1-0.2-3.9-0.5-5.5s-0.7-2.8-1.2-3.7
		c-0.5-0.9-1-1.6-1.6-2.2s-1.1-0.9-1.7-1.1s-1.1-0.3-1.5-0.3c-0.5,0-0.8,0-1.1,0.1l-0.4,0.1v21.9L1122.8,252.8L1122.8,252.8z"/>
	<path class="st14" d="M1167.1,237.9v19.2c-0.1,1.8-0.4,3.2-1,4.2s-1.2,1.6-1.9,1.7c-0.7,0.1-1.4,0.1-2.1,0s-1.2-0.4-1.7-0.6
		l-0.7-0.4c-0.4,0.4-1.1,0.7-2.2,0.9c-1.1,0.2-2.4,0.3-3.8,0.2c-1.4-0.1-2.9-0.4-4.4-0.9c-1.5-0.6-2.9-1.3-4.1-2.2
		c-1.2-0.9-2.2-2.3-2.9-4c-0.7-1.7-1-3.7-0.9-6c0.1-1.9,0.5-3.6,1.2-5.1c0.6-1.5,1.4-2.7,2.3-3.6s1.9-1.7,2.9-2.3s2.1-1.1,3.1-1.3
		c1-0.2,2-0.4,2.8-0.5s1.5-0.2,2-0.2h0.8c-0.3-1.6-1.1-2.8-2.2-3.4s-2.4-0.9-3.7-0.8c-1.4,0.1-2.8,0.4-4.1,0.7
		c-1.4,0.3-2.6,0.5-3.7,0.4c-1.1,0-1.8-0.4-2.1-1.1c-0.2-0.8-0.3-1.6-0.2-2.4c0.1-0.8,0.5-1.6,1.3-2.4s1.7-1.5,2.8-2.1
		c1.1-0.6,2.7-1.1,4.6-1.4c1.9-0.4,4.1-0.5,6.4-0.5c1.6,0,3.1,0.3,4.4,0.8s2.4,1.2,3.1,2.1c0.8,0.8,1.4,1.8,2,2.8s0.9,2,1.2,3
		c0.2,1,0.4,1.9,0.5,2.7c0.1,0.8,0.1,1.5,0.1,2v0.5L1167.1,237.9L1167.1,237.9z M1149.4,246.1c-0.7,1.3-0.9,2.6-0.8,4
		s0.6,2.5,1.3,3.5c0.7,1,1.6,1.8,2.7,2.6c1,0.7,2.1,1.1,3.2,1.2c1.1,0,2.1-0.1,3-0.6l-1-11.1c-0.1-0.1-0.2-0.2-0.3-0.4
		c-0.1-0.1-0.4-0.4-0.8-0.8s-0.8-0.7-1.2-0.9c-0.4-0.2-0.8-0.4-1.4-0.6c-0.5-0.2-1.1-0.2-1.6-0.1s-1.1,0.4-1.6,0.9
		C1150.4,244.4,1149.9,245.1,1149.4,246.1z"/>
	<path class="st14" d="M1191.5,244.7c1.2,1.1,2.2,2.3,2.8,3.6c0.6,1.3,1,2.5,1,3.6c0,1.2-0.1,2.1-0.3,2.9c-0.2,0.8-0.4,1.5-0.7,2.3
		c-0.8,1.7-1.8,3.2-3.1,4.3c-1.3,1.1-2.5,1.7-3.7,1.7c-7.6,0-12.6-1.2-15-3.6c-1-1-1.4-2.1-1.3-3.5c0.2-2.3,0.9-3.8,2.2-4.6
		c1-0.6,1.9-0.7,2.9-0.4l0.1,0.1h0.1c0.1,0.1,0.3,0.3,0.5,0.5s0.6,0.6,1.2,1.1s1.2,1,1.8,1.3c0.6,0.4,1.3,0.6,2.1,0.9
		c0.8,0.2,1.5,0.2,2.3,0c1.1-0.3,1.7-0.7,1.9-1.3c0-0.3,0-0.6-0.1-1s-0.3-0.7-0.5-1s-0.4-0.6-0.7-0.9c-0.3-0.3-0.5-0.5-0.6-0.6
		s-0.2-0.2-0.3-0.3c-0.9-0.7-2-1.6-3.4-2.7c-1.3-1.1-3.2-2.8-5.6-5.1c-2.4-2.3-3.9-4.1-4.6-5.5c-0.6-1.2-0.9-2.5-0.7-3.9
		c0.2-1.5,0.7-2.8,1.6-4.1c2.3-3.3,6.2-5,11.6-5c3.7,0,6.3,0.9,7.8,2.7c0.6,0.7,1,1.6,1.1,2.7s0.1,1.8,0.1,2.3
		c-0.1,0.5-0.2,0.8-0.3,1.1h-0.1c-0.7,1.2-1.6,1.8-2.5,2c-1,0.2-2.5-0.2-4.5-1.3c-0.8-0.4-1.4-0.7-1.8-0.9c-0.4-0.2-0.9-0.2-1.5-0.2
		s-1.1,0.3-1.5,0.7c-0.6,0.6-0.8,1.2-0.8,1.8c0,0.4,0.3,0.9,0.8,1.4s1,0.9,1.5,1.3s1.4,1,2.7,1.8
		C1187.1,241.3,1189.6,243.1,1191.5,244.7z"/>
	<path class="st14" d="M1221.4,252.1c1.2,0.6,1.7,1.3,1.6,2.1c-0.1,0.8-0.4,1.6-0.9,2.3c-0.5,0.7-0.8,1.1-0.9,1.1
		c-2.7,2.4-5.2,3.9-7.5,4.8c-2.3,0.8-4.3,1-5.9,0.5s-3-1.4-4.3-2.5c-1.3-1.2-2.3-2.5-3-4.2c-0.7-1.6-1.4-3.2-1.9-4.6s-0.9-2.7-1-3.7
		l-0.3-1.5c-0.4-3-0.4-5.7-0.2-8c0.3-2.3,0.8-4.3,1.6-5.9c0.8-1.6,1.8-3,2.8-4s2.2-1.9,3.4-2.6c1.2-0.6,2.3-1.1,3.2-1.4
		c1-0.3,1.8-0.6,2.4-0.6l0.9-0.1c0.1,0,0.3,0,0.6,0c0.2,0,0.7,0,1.4,0.1c0.7,0.1,1.4,0.3,2.1,0.5c0.6,0.2,1.4,0.6,2.2,1.2
		c0.8,0.6,1.6,1.3,2.2,2.2c0.6,0.9,1.2,2.1,1.8,3.6c0.5,1.5,0.9,3.2,1.1,5.1s0,3.5-0.5,4.9c-0.6,1.4-1.3,2.4-2.3,3.1
		s-2.1,1.2-3.4,1.5c-1.2,0.4-2.5,0.5-3.8,0.5s-2.5-0.1-3.6-0.2s-2-0.2-2.7-0.4l-1-0.2c0.1,2,0.9,4,2.4,5.9s2.9,3,4.4,3.2
		c0.6,0.1,1.2-0.1,2-0.5s1.5-0.8,2.1-1.3s1.4-0.8,2.3-1.1C1219.7,251.6,1220.6,251.7,1221.4,252.1z M1205.8,235.8
		c-0.6,1.7-0.6,2.9,0,3.4c0.3,0.2,1,0.5,2.1,0.8s2.3,0.6,3.6,0.8c1.3,0.2,2.5,0,3.6-0.6s1.6-1.5,1.7-2.9c0-1.8-0.8-3-2.4-3.6
		c-1.7-0.6-3.4-0.6-5.2-0.1C1207.2,234.2,1206.1,234.9,1205.8,235.8z"/>
	<path class="st14" d="M1265.6,212.7c1,0,1.8,0.2,2.5,0.7s1.2,1,1.5,1.5c0.3,0.6,0.6,1.2,0.8,2c0.2,0.7,0.3,1.3,0.3,1.5s0,0.5,0,0.7
		v35.5c0,0.2,0,0.4,0,0.8c0,0.3-0.1,0.9-0.2,1.7c-0.1,0.8-0.2,1.6-0.4,2.3c-0.2,0.7-0.4,1.4-0.8,2.1s-0.8,1.2-1.3,1.4
		c-0.5,0.3-1.1,0.3-1.9,0c-0.8-0.2-1.7-0.8-2.7-1.7c-0.2,0.1-0.5,0.3-0.8,0.5s-1,0.5-2,0.8s-2,0.5-3,0.5s-2.1-0.3-3.4-0.9
		s-2.4-1.6-3.5-3c-1.1-1.3-2.1-3.4-3.2-6.1c-1-2.7-1.9-6-2.5-9.8c0-0.3,0-0.8-0.1-1.3c0-0.5,0-1.5,0.1-3s0.3-2.9,0.5-4.2
		c0.3-1.3,0.8-2.8,1.5-4.4s1.7-2.9,2.7-3.9c1.1-1,2.6-1.8,4.5-2.4s4.1-0.7,6.6-0.3c0-0.1,0-0.3,0-0.6c0-0.3,0-0.8,0-1.5
		c0-0.8,0-1.5,0.1-2.2c0-0.7,0.2-1.5,0.4-2.3c0.2-0.9,0.5-1.6,0.8-2.2s0.8-1.2,1.4-1.6C1264,212.9,1264.8,212.7,1265.6,212.7z
		 M1252.5,242.3c0.4,7.7,2.4,11.9,5.9,12.4c1,0.1,1.8,0,2.6-0.4c-0.2-0.6-0.3-2.8-0.4-6.4c0-3.6-0.1-7.1-0.1-10.4v-5
		c0,0-0.1-0.1-0.3-0.2c-0.1-0.1-0.4-0.2-0.8-0.3c-0.4-0.1-0.8-0.2-1.2-0.3c-0.4-0.1-0.8-0.1-1.3,0c-0.5,0-1,0.2-1.4,0.4
		c-0.4,0.2-0.9,0.6-1.3,1.1s-0.8,1.2-1,1.9c-0.3,0.7-0.5,1.7-0.6,3C1252.5,239.3,1252.5,240.8,1252.5,242.3z"/>
	<path class="st14" d="M1298.3,252.1c1.2,0.6,1.7,1.3,1.6,2.1c-0.1,0.8-0.4,1.6-0.9,2.3c-0.5,0.7-0.8,1.1-0.9,1.1
		c-2.7,2.4-5.2,3.9-7.5,4.8c-2.3,0.8-4.3,1-5.9,0.5s-3-1.4-4.3-2.5c-1.3-1.2-2.3-2.5-3-4.2c-0.7-1.6-1.4-3.2-1.9-4.6s-0.9-2.7-1-3.7
		l-0.3-1.5c-0.4-3-0.4-5.7-0.2-8c0.3-2.3,0.8-4.3,1.6-5.9c0.8-1.6,1.8-3,2.8-4s2.2-1.9,3.4-2.6c1.2-0.6,2.3-1.1,3.2-1.4
		c1-0.3,1.8-0.6,2.4-0.6l0.9-0.1c0.1,0,0.3,0,0.6,0c0.2,0,0.7,0,1.4,0.1c0.7,0.1,1.4,0.3,2.1,0.5c0.6,0.2,1.4,0.6,2.2,1.2
		c0.8,0.6,1.6,1.3,2.2,2.2c0.6,0.9,1.2,2.1,1.8,3.6c0.5,1.5,0.9,3.2,1.1,5.1s0,3.5-0.5,4.9c-0.6,1.4-1.3,2.4-2.3,3.1
		s-2.1,1.2-3.4,1.5c-1.2,0.4-2.5,0.5-3.8,0.5s-2.5-0.1-3.6-0.2s-2-0.2-2.7-0.4l-1-0.2c0.1,2,0.9,4,2.4,5.9s2.9,3,4.4,3.2
		c0.6,0.1,1.2-0.1,2-0.5s1.5-0.8,2.1-1.3s1.4-0.8,2.3-1.1C1296.6,251.6,1297.5,251.7,1298.3,252.1z M1282.6,235.8
		c-0.6,1.7-0.6,2.9,0,3.4c0.3,0.2,1,0.5,2.1,0.8s2.3,0.6,3.6,0.8c1.3,0.2,2.5,0,3.6-0.6s1.6-1.5,1.7-2.9c0-1.8-0.8-3-2.4-3.6
		c-1.7-0.6-3.4-0.6-5.2-0.1C1284.1,234.2,1283,234.9,1282.6,235.8z"/>
	<path class="st14" d="M522.2,299.1c1,0,1.8,0.2,2.5,0.7c0.7,0.5,1.2,1,1.5,1.5c0.3,0.6,0.6,1.2,0.8,2c0.2,0.7,0.3,1.3,0.3,1.5
		c0,0.3,0,0.5,0,0.7V341c0,0.2,0,0.4,0,0.8c0,0.3-0.1,0.9-0.2,1.7c-0.1,0.8-0.2,1.6-0.4,2.3c-0.2,0.7-0.4,1.4-0.8,2.1
		s-0.8,1.2-1.3,1.4c-0.5,0.3-1.1,0.3-1.9,0c-0.8-0.2-1.7-0.8-2.7-1.7c-0.2,0.1-0.5,0.3-0.8,0.5c-0.3,0.2-1,0.5-2,0.8s-2,0.5-3,0.5
		s-2.1-0.3-3.4-0.9s-2.4-1.6-3.5-3c-1.1-1.3-2.1-3.4-3.2-6.1c-1-2.7-1.9-6-2.5-9.8c0-0.3,0-0.8-0.1-1.3c0-0.5,0-1.5,0.1-3
		s0.3-2.9,0.5-4.2c0.3-1.3,0.8-2.8,1.5-4.4s1.7-2.9,2.7-3.9c1.1-1,2.6-1.8,4.5-2.4c1.9-0.6,4.1-0.7,6.6-0.3c0-0.1,0-0.3,0-0.6
		c0-0.3,0-0.8,0-1.5s0-1.5,0.1-2.2c0-0.7,0.2-1.5,0.4-2.3c0.2-0.9,0.5-1.6,0.8-2.2c0.3-0.6,0.8-1.2,1.4-1.6
		C520.7,299.3,521.4,299.1,522.2,299.1z M509.2,328.7c0.4,7.7,2.4,11.9,5.9,12.4c1,0.1,1.8,0,2.6-0.4c-0.2-0.6-0.3-2.8-0.4-6.4
		c0-3.6-0.1-7.1-0.1-10.4v-5c0,0-0.1-0.1-0.3-0.2c-0.1-0.1-0.4-0.2-0.8-0.3c-0.4-0.1-0.8-0.2-1.2-0.3c-0.4-0.1-0.8-0.1-1.3,0
		c-0.5,0-1,0.2-1.4,0.4c-0.4,0.2-0.9,0.6-1.3,1.1s-0.8,1.2-1,1.9c-0.3,0.7-0.5,1.7-0.6,3C509.2,325.7,509.1,327.2,509.2,328.7z"/>
	<path class="st14" d="M557.1,324.3v19.2c-0.1,1.8-0.4,3.2-1,4.2s-1.2,1.6-1.9,1.7c-0.7,0.1-1.4,0.1-2.1,0s-1.2-0.4-1.7-0.6
		l-0.7-0.4c-0.4,0.4-1.1,0.7-2.2,0.9c-1.1,0.2-2.4,0.3-3.8,0.2c-1.4-0.1-2.9-0.4-4.4-0.9c-1.5-0.6-2.9-1.3-4.1-2.2
		c-1.2-0.9-2.2-2.3-2.9-4c-0.7-1.7-1-3.7-0.9-6c0.1-1.9,0.5-3.6,1.2-5.1c0.6-1.5,1.4-2.7,2.3-3.6c0.9-0.9,1.9-1.7,2.9-2.3
		c1.1-0.6,2.1-1.1,3.1-1.3c1-0.2,2-0.4,2.8-0.5c0.8-0.1,1.5-0.2,2-0.2h0.8c-0.3-1.6-1.1-2.8-2.2-3.4s-2.4-0.9-3.7-0.8
		c-1.4,0.1-2.8,0.4-4.1,0.7c-1.4,0.3-2.6,0.5-3.7,0.4c-1.1,0-1.8-0.4-2.1-1.1c-0.2-0.8-0.3-1.6-0.2-2.4s0.5-1.6,1.3-2.4
		c0.8-0.8,1.7-1.5,2.8-2.1s2.7-1.1,4.6-1.4c1.9-0.4,4.1-0.5,6.4-0.5c1.6,0,3.1,0.3,4.4,0.8s2.4,1.2,3.1,2.1c0.8,0.8,1.4,1.8,2,2.8
		s0.9,2,1.2,3c0.2,1,0.4,1.9,0.5,2.7c0.1,0.8,0.1,1.5,0.1,2v0.5L557.1,324.3L557.1,324.3z M539.5,332.5c-0.7,1.3-0.9,2.6-0.8,4
		c0.1,1.4,0.6,2.5,1.3,3.5c0.7,1,1.6,1.8,2.7,2.6c1,0.7,2.1,1.1,3.2,1.2c1.1,0,2.1-0.1,3-0.6l-1-11.1c-0.1-0.1-0.2-0.2-0.3-0.4
		c-0.1-0.1-0.4-0.4-0.8-0.8s-0.8-0.7-1.2-0.9c-0.4-0.2-0.8-0.4-1.4-0.6c-0.5-0.2-1.1-0.2-1.6-0.1s-1.1,0.4-1.6,0.9
		C540.5,330.8,540,331.5,539.5,332.5z"/>
	<path class="st14" d="M588.9,341.8c0,0.6,0,1.1-0.2,1.7c-0.2,0.6-0.4,1-0.7,1.4c-0.3,0.4-0.7,0.8-1,1.1c-0.4,0.3-0.8,0.6-1.2,0.8
		c-0.4,0.2-0.7,0.4-1.1,0.5c-0.3,0.1-0.6,0.3-0.8,0.4l-0.3,0.1c-0.1,0.1-0.2,0.2-0.4,0.3c-0.2,0.1-0.6,0.2-1.2,0.5
		c-0.6,0.2-1.4,0.4-2.1,0.5c-0.8,0.1-1.8,0.2-3.1,0.3c-1.3,0.1-2.7,0-4.1-0.2c-1.4-0.2-2.7-0.8-3.7-1.9s-1.7-2.3-2.1-3.7
		c-0.4-1.4-0.7-2.8-0.8-4.2c-0.2-1.4-0.2-2.6-0.2-3.5v-1.4v-15.2c-4.7-0.2-7.1-1.3-7.1-3.2c0-0.9,0.3-1.7,0.8-2.3
		c0.5-0.6,1.2-1.2,2.1-1.5c0.9-0.3,1.6-0.6,2.3-0.8c0.6-0.1,1.3-0.3,1.9-0.4v-5.8c0-1.4,0.2-2.6,0.6-3.5c0.4-0.9,1-1.6,1.6-2
		s1.3-0.6,1.9-0.7c0.7-0.1,1.3,0,1.9,0.3c0.6,0.3,1,0.6,1.3,1c0.4,0.6,0.7,3.8,1.1,9.6c6.4-0.3,10.1,0.6,11.1,3
		c0.4,1,0.3,1.8-0.3,2.6c-0.6,0.7-1.6,1.3-3,1.7c-1.3,0.4-2.6,0.7-3.7,0.9c-1.1,0.2-2.3,0.4-3.6,0.5c0.5,9.6,1.1,15.6,1.6,17.9
		c0.2,1,0.6,1.8,0.9,2.4c0.4,0.6,0.8,1,1.2,1.3c0.4,0.2,0.9,0.3,1.3,0.4c0.5,0,0.9,0,1.3-0.2c0.4-0.2,0.8-0.3,1.2-0.5
		c0.3-0.2,0.6-0.4,0.8-0.5l0.3-0.3c0.1,0,0.3-0.1,0.5-0.1c0.2,0,0.6-0.1,1.2-0.2c0.6-0.1,1.1,0,1.5,0.1c0.5,0.1,0.9,0.4,1.3,0.9
		C588.5,340.4,588.8,341,588.9,341.8z"/>
	<path class="st14" d="M602.8,310.2c1.9,0.1,3.6,0.6,5.1,1.5c1.5,0.8,2.6,1.8,3.5,3s1.6,2.4,2.2,3.8s1,2.7,1.3,4
		c0.2,1.3,0.4,2.5,0.5,3.6s0.1,2,0.1,2.7l-0.1,1c-0.3,3.4-0.9,6.4-1.8,8.9s-1.8,4.5-2.9,5.8c-1,1.3-2.2,2.4-3.5,3.2
		c-1.3,0.8-2.3,1.3-3.2,1.5c-0.8,0.2-1.6,0.3-2.4,0.3c-0.7,0-1.5-0.1-2.3-0.4c-0.8-0.2-1.8-0.8-3-1.7c-1.2-0.9-2.2-2-3.1-3.4
		s-1.6-3.5-2.2-6.2s-0.9-5.8-0.8-9.3c0.1-2.5,0.4-4.8,0.9-6.8c0.5-2.1,1.1-3.7,1.9-5c0.7-1.2,1.5-2.3,2.4-3.2c0.9-0.9,1.7-1.6,2.6-2
		c0.9-0.4,1.7-0.8,2.4-1c0.7-0.2,1.3-0.4,1.7-0.4h0.7V310.2L602.8,310.2z M607.2,328.5c0.1-2,0.1-3.7,0-4.9
		c-0.1-1.3-0.4-2.2-0.9-2.7s-0.9-0.9-1.3-1c-0.4-0.1-1-0.2-1.7-0.1c-0.1,0-0.3-0.1-0.5,0c-0.2,0-0.7,0.2-1.3,0.5s-1.1,0.8-1.6,1.3
		c-0.5,0.6-0.9,1.6-1.4,3s-0.8,3-0.9,4.9c-0.1,2.4-0.1,4.5,0,6.1c0.2,1.6,0.5,2.8,0.9,3.5c0.5,0.7,0.9,1.2,1.4,1.4
		c0.5,0.2,1,0.4,1.8,0.4c0.8,0,1.6-0.4,2.3-1.3c0.7-0.8,1.4-2.2,1.9-4.1C606.6,333.4,607,331.1,607.2,328.5z"/>
	<path class="st14" d="M639,331.1c1.2,1.1,2.2,2.3,2.8,3.6c0.6,1.3,1,2.5,1,3.6c0,1.2-0.1,2.1-0.3,2.9c-0.2,0.8-0.4,1.5-0.7,2.3
		c-0.8,1.7-1.8,3.2-3.1,4.3c-1.3,1.1-2.5,1.7-3.7,1.7c-7.6,0-12.6-1.2-15-3.6c-1-1-1.4-2.1-1.3-3.5c0.2-2.3,0.9-3.8,2.2-4.6
		c1-0.6,1.9-0.7,2.9-0.4l0.1,0.1h0.1c0.1,0.1,0.3,0.3,0.5,0.5c0.2,0.2,0.6,0.6,1.2,1.1c0.6,0.5,1.2,1,1.8,1.3
		c0.6,0.4,1.3,0.6,2.1,0.9c0.8,0.3,1.5,0.2,2.3,0c1.1-0.3,1.7-0.7,1.9-1.3c0-0.3,0-0.6-0.1-1s-0.3-0.7-0.5-1
		c-0.2-0.3-0.4-0.6-0.7-0.9c-0.3-0.3-0.5-0.5-0.6-0.6s-0.2-0.2-0.3-0.3c-0.9-0.7-2-1.6-3.4-2.7c-1.3-1.1-3.2-2.8-5.6-5.1
		c-2.4-2.3-3.9-4.1-4.6-5.5c-0.6-1.2-0.9-2.5-0.7-3.9c0.2-1.5,0.7-2.8,1.6-4.1c2.3-3.3,6.2-5,11.6-5c3.7,0,6.3,0.9,7.8,2.7
		c0.6,0.7,1,1.6,1.1,2.7s0.1,1.8,0.1,2.3c-0.1,0.5-0.2,0.8-0.3,1.1h-0.1c-0.7,1.2-1.6,1.8-2.5,2c-1,0.2-2.5-0.2-4.5-1.3
		c-0.8-0.4-1.4-0.7-1.8-0.9c-0.4-0.2-0.9-0.2-1.5-0.2s-1.1,0.3-1.5,0.7c-0.6,0.6-0.8,1.2-0.8,1.8c0,0.4,0.3,0.9,0.8,1.4
		s1,0.9,1.5,1.3s1.4,1,2.7,1.8C634.7,327.7,637.2,329.5,639,331.1z"/>
	<path class="st14" d="M675,335.1c0,0.2,0,0.5,0,0.8c0,0.4,0,1,0,2.1s0,2-0.1,2.9s-0.2,1.9-0.4,3c-0.2,1.1-0.4,2.1-0.7,2.9
		c-0.3,0.8-0.7,1.5-1.3,2.1c-0.5,0.6-1.2,0.8-1.9,0.8c-1,0-1.8-0.4-2.6-1.2c-0.8-0.8-1.3-1.7-1.7-2.8c-0.4-1.1-0.7-2.2-0.9-3.3
		c-0.2-1.1-0.4-2.1-0.4-2.8l-0.1-1.2v-31.8c0-0.2,0-0.5,0.1-0.8c0-0.3,0.2-0.9,0.4-1.8c0.2-0.9,0.5-1.6,0.8-2.3
		c0.3-0.6,0.9-1.2,1.5-1.8c0.7-0.5,1.5-0.8,2.4-0.8s1.7,0.3,2.3,0.8s1.1,1.1,1.4,1.8s0.5,1.4,0.7,2.2c0.2,0.7,0.3,1.3,0.3,1.9
		l0.1,0.8L675,335.1L675,335.1L675,335.1z"/>
	<path class="st14" d="M691,310.2c1.9,0.1,3.6,0.6,5.1,1.5c1.5,0.8,2.6,1.8,3.5,3s1.6,2.4,2.2,3.8c0.6,1.4,1,2.7,1.3,4
		c0.2,1.3,0.4,2.5,0.5,3.6s0.1,2,0.1,2.7l-0.1,1c-0.3,3.4-0.9,6.4-1.8,8.9c-0.9,2.5-1.8,4.5-2.9,5.8c-1,1.3-2.2,2.4-3.5,3.2
		c-1.3,0.8-2.3,1.3-3.2,1.5c-0.8,0.2-1.6,0.3-2.4,0.3c-0.7,0-1.5-0.1-2.3-0.4c-0.8-0.2-1.8-0.8-3-1.7c-1.2-0.9-2.2-2-3.1-3.4
		c-0.9-1.4-1.6-3.5-2.2-6.2c-0.6-2.7-0.9-5.8-0.8-9.3c0.1-2.5,0.4-4.8,0.9-6.8c0.5-2.1,1.1-3.7,1.9-5c0.7-1.2,1.5-2.3,2.4-3.2
		c0.9-0.9,1.7-1.6,2.6-2s1.7-0.8,2.4-1c0.7-0.2,1.3-0.4,1.7-0.4h0.7L691,310.2L691,310.2z M695.4,328.5c0.1-2,0.1-3.7,0-4.9
		c-0.1-1.3-0.4-2.2-0.9-2.7s-0.9-0.9-1.3-1s-1-0.2-1.7-0.1c-0.1,0-0.3-0.1-0.5,0c-0.2,0-0.7,0.2-1.3,0.5s-1.1,0.8-1.6,1.3
		c-0.5,0.6-0.9,1.6-1.4,3s-0.8,3-0.9,4.9c-0.1,2.4-0.1,4.5,0,6.1c0.2,1.6,0.5,2.8,0.9,3.5c0.5,0.7,0.9,1.2,1.4,1.4
		c0.5,0.2,1,0.4,1.8,0.4c0.8,0,1.6-0.4,2.3-1.3c0.7-0.8,1.4-2.2,1.9-4.1C694.8,333.4,695.2,331.1,695.4,328.5z"/>
	<path class="st14" d="M727.2,331.1c1.2,1.1,2.2,2.3,2.8,3.6c0.6,1.3,1,2.5,1,3.6c0,1.2-0.1,2.1-0.3,2.9c-0.2,0.8-0.4,1.5-0.7,2.3
		c-0.8,1.7-1.8,3.2-3.1,4.3c-1.3,1.1-2.5,1.7-3.7,1.7c-7.6,0-12.6-1.2-15-3.6c-1-1-1.4-2.1-1.3-3.5c0.2-2.3,0.9-3.8,2.2-4.6
		c1-0.6,1.9-0.7,2.9-0.4l0.1,0.1h0.1c0.1,0.1,0.3,0.3,0.5,0.5c0.2,0.2,0.6,0.6,1.2,1.1c0.6,0.5,1.2,1,1.8,1.3
		c0.6,0.4,1.3,0.6,2.1,0.9c0.8,0.3,1.5,0.2,2.3,0c1.1-0.3,1.7-0.7,1.9-1.3c0-0.3,0-0.6-0.1-1s-0.3-0.7-0.5-1
		c-0.2-0.3-0.4-0.6-0.7-0.9c-0.3-0.3-0.5-0.5-0.6-0.6s-0.2-0.2-0.3-0.3c-0.9-0.7-2-1.6-3.4-2.7c-1.3-1.1-3.2-2.8-5.6-5.1
		c-2.4-2.3-3.9-4.1-4.6-5.5c-0.6-1.2-0.9-2.5-0.7-3.9c0.2-1.5,0.7-2.8,1.6-4.1c2.3-3.3,6.2-5,11.6-5c3.7,0,6.3,0.9,7.8,2.7
		c0.6,0.7,1,1.6,1.1,2.7s0.1,1.8,0.1,2.3c-0.1,0.5-0.2,0.8-0.3,1.1h-0.1c-0.7,1.2-1.6,1.8-2.5,2c-1,0.2-2.5-0.2-4.5-1.3
		c-0.8-0.4-1.4-0.7-1.8-0.9c-0.4-0.2-0.9-0.2-1.5-0.2s-1.1,0.3-1.5,0.7c-0.6,0.6-0.8,1.2-0.8,1.8c0,0.4,0.3,0.9,0.8,1.4
		s1,0.9,1.5,1.3s1.4,1,2.7,1.8C722.9,327.7,725.4,329.5,727.2,331.1z"/>
	<path class="st14" d="M768.6,310.1c1.9,0,3.5,0.5,4.9,1.6c1.3,1.1,2.3,2.4,2.8,3.9c0.6,1.5,1,3.1,1.2,4.8c0.2,1.6,0.3,3.1,0.3,4.3
		c-0.1,1.2-0.2,2.1-0.4,2.5c-0.1,0.4-0.4,0.7-0.9,1s-1,0.5-1.6,0.6s-1.2,0-1.9-0.3c-0.6-0.2-1.2-0.8-1.9-1.6
		c-0.6-0.8-1.1-1.9-1.4-3.2c-0.3-1-0.6-1.8-1-2.5s-0.8-1.2-1.2-1.6s-0.8-0.6-1.2-0.9c-0.4-0.2-0.8-0.3-1.2-0.3s-0.7,0-1,0
		c-0.3,0-0.5,0.1-0.7,0.1l-0.2,0.1c0,0.7,0,2.1,0.1,4c0,1.9,0.1,3.8,0.1,5.4c0,1.7,0,3.6,0,5.8c0,2.2-0.1,4.2-0.3,5.9
		c-0.2,1.7-0.4,3.4-0.7,4.9c-0.3,1.5-0.7,2.7-1.3,3.6s-1.2,1.3-2.1,1.3c-1.1,0-2-0.4-2.7-1.1c-0.8-0.7-1.3-1.6-1.7-2.7
		s-0.6-2.1-0.8-3.1c-0.2-1-0.3-1.9-0.4-2.7V339v-21.4c0-1.3,0.1-2.6,0.4-3.6c0.3-1.1,0.8-2,1.5-2.8c0.7-0.8,1.6-1.2,2.7-1.2
		c1.1,0,1.9,0.2,2.6,0.6c0.6,0.4,1,0.8,1.2,1.2l0.2,0.6c0.6-0.7,1.5-1.3,2.6-1.6c1.1-0.4,2.1-0.6,2.9-0.6L768.6,310.1z"/>
	<path class="st14" d="M803.6,338.5c1.2,0.6,1.7,1.3,1.6,2.1c-0.1,0.8-0.4,1.6-0.9,2.3c-0.5,0.7-0.8,1.1-0.9,1.1
		c-2.7,2.4-5.2,3.9-7.5,4.8c-2.3,0.8-4.3,1-5.9,0.5c-1.6-0.5-3-1.4-4.3-2.5c-1.3-1.2-2.3-2.5-3-4.2c-0.7-1.6-1.4-3.2-1.9-4.6
		s-0.9-2.7-1-3.7l-0.3-1.5c-0.4-3-0.4-5.7-0.2-8c0.3-2.3,0.8-4.3,1.6-5.9c0.8-1.6,1.8-3,2.8-4s2.2-1.9,3.4-2.6
		c1.2-0.6,2.3-1.1,3.2-1.4c1-0.3,1.8-0.6,2.4-0.6l0.9-0.1c0.1,0,0.3,0,0.6,0c0.2,0,0.7,0,1.4,0.1c0.7,0.1,1.4,0.3,2.1,0.5
		c0.6,0.2,1.4,0.6,2.2,1.2c0.8,0.6,1.6,1.3,2.2,2.2c0.6,0.9,1.2,2.1,1.8,3.6c0.5,1.5,0.9,3.2,1.1,5.1c0.2,1.9,0,3.5-0.5,4.9
		c-0.6,1.4-1.3,2.4-2.3,3.1s-2.1,1.2-3.4,1.5c-1.2,0.4-2.5,0.5-3.8,0.5c-1.3,0-2.5-0.1-3.6-0.2s-2-0.2-2.7-0.4l-1-0.2
		c0.1,2,0.9,4,2.4,5.9s2.9,3,4.4,3.2c0.6,0.1,1.2-0.1,2-0.5c0.8-0.4,1.5-0.8,2.1-1.3s1.4-0.8,2.3-1.1
		C801.9,338,802.8,338.1,803.6,338.5z M787.9,322.2c-0.6,1.7-0.6,2.9,0,3.4c0.3,0.2,1,0.5,2.1,0.8s2.3,0.6,3.6,0.8
		c1.3,0.2,2.5,0,3.6-0.6s1.6-1.5,1.7-2.9c0-1.8-0.8-3-2.4-3.6c-1.6-0.6-3.4-0.6-5.2-0.1C789.4,320.6,788.3,321.3,787.9,322.2z"/>
	<path class="st14" d="M829,331.1c1.2,1.1,2.2,2.3,2.8,3.6c0.6,1.3,1,2.5,1,3.6c0,1.2-0.1,2.1-0.3,2.9c-0.2,0.8-0.4,1.5-0.7,2.3
		c-0.8,1.7-1.8,3.2-3.1,4.3c-1.3,1.1-2.5,1.7-3.7,1.7c-7.6,0-12.6-1.2-15-3.6c-1-1-1.4-2.1-1.3-3.5c0.2-2.3,0.9-3.8,2.2-4.6
		c1-0.6,1.9-0.7,2.9-0.4l0.1,0.1h0.1c0.1,0.1,0.3,0.3,0.5,0.5c0.2,0.2,0.6,0.6,1.2,1.1c0.6,0.5,1.2,1,1.8,1.3
		c0.6,0.4,1.3,0.6,2.1,0.9c0.8,0.3,1.5,0.2,2.3,0c1.1-0.3,1.7-0.7,1.9-1.3c0-0.3,0-0.6-0.1-1s-0.3-0.7-0.5-1
		c-0.2-0.3-0.4-0.6-0.7-0.9c-0.3-0.3-0.5-0.5-0.6-0.6s-0.2-0.2-0.3-0.3c-0.9-0.7-2-1.6-3.4-2.7c-1.3-1.1-3.2-2.8-5.6-5.1
		c-2.4-2.3-3.9-4.1-4.6-5.5c-0.6-1.2-0.9-2.5-0.7-3.9c0.2-1.5,0.7-2.8,1.6-4.1c2.3-3.3,6.2-5,11.6-5c3.7,0,6.3,0.9,7.8,2.7
		c0.6,0.7,1,1.6,1.1,2.7s0.1,1.8,0.1,2.3c-0.1,0.5-0.2,0.8-0.3,1.1h-0.1c-0.7,1.2-1.6,1.8-2.5,2c-1,0.2-2.5-0.2-4.5-1.3
		c-0.8-0.4-1.4-0.7-1.8-0.9c-0.4-0.2-0.9-0.2-1.5-0.2s-1.1,0.3-1.5,0.7c-0.6,0.6-0.8,1.2-0.8,1.8c0,0.4,0.3,0.9,0.8,1.4
		s1,0.9,1.5,1.3s1.4,1,2.7,1.8C824.6,327.7,827.1,329.5,829,331.1z"/>
	<path class="st14" d="M854.9,310.1c1,0,1.8,0.4,2.6,1.2c0.7,0.8,1.3,1.7,1.7,2.7s0.7,2.2,0.9,3.5c0.2,1.3,0.4,2.2,0.4,2.7
		s0.1,0.9,0.1,1.3v20.7c0,0.2,0,0.5,0,0.8s-0.1,0.9-0.4,1.8c-0.2,0.8-0.5,1.6-0.8,2.2c-0.3,0.6-0.8,1.2-1.5,1.8
		c-0.7,0.6-1.5,0.8-2.4,0.8c-1.6,0-2.9-0.8-3.7-2.5c-1.9,1.6-4.4,2.4-7.5,2.4c-1.9,0-3.4-0.6-4.6-1.7s-2.1-3.1-2.8-5.8
		c-0.7-2.7-1.1-6.1-1.3-10.2c-0.2-4.1-0.3-9.3-0.1-15.6c0-0.1,0-0.2,0-0.4c0-0.1,0-0.4,0.1-0.8s0.2-0.8,0.3-1.2
		c0.1-0.4,0.3-0.8,0.5-1.3c0.2-0.5,0.5-0.9,0.8-1.2c0.3-0.3,0.7-0.6,1.2-0.8c0.5-0.2,1-0.3,1.7-0.3c0.8,0,1.5,0.4,2.1,1.2
		c0.6,0.8,1,1.8,1.3,2.9c0.3,1.1,0.5,2.3,0.7,3.4c0.2,1.2,0.3,2.1,0.3,2.9v1.2c0,0.4,0,0.9,0,1.6s0,2,0.1,3.9s0.2,3.6,0.5,5.1
		c0.3,1.6,0.6,3.1,1,4.7s1,2.7,1.9,3.4c0.9,0.7,1.9,0.9,3,0.5l0.1-0.1v-16.3c0-0.2-0.1-0.5-0.1-0.8c0-0.4,0-1,0-2.1s0-2,0.1-2.9
		c0-0.9,0.2-1.9,0.4-3c0.2-1.1,0.4-2.1,0.7-2.8c0.3-0.7,0.7-1.5,1.2-2C853.6,310.4,854.2,310.1,854.9,310.1z"/>
	<path class="st14" d="M874.6,335.1c0,0.2,0,0.5,0,0.8c0,0.4,0,1,0,2.1s0,2-0.1,2.9s-0.2,1.9-0.4,3c-0.2,1.1-0.4,2.1-0.7,2.9
		c-0.3,0.8-0.7,1.5-1.3,2.1c-0.5,0.6-1.2,0.8-1.9,0.8c-1,0-1.8-0.4-2.6-1.2c-0.8-0.8-1.3-1.7-1.7-2.8c-0.4-1.1-0.7-2.2-0.9-3.3
		c-0.2-1.1-0.4-2.1-0.4-2.8l-0.1-1.2v-31.8c0-0.2,0-0.5,0.1-0.8c0-0.3,0.2-0.9,0.4-1.8c0.2-0.9,0.5-1.6,0.8-2.3
		c0.3-0.6,0.9-1.2,1.5-1.8c0.7-0.5,1.5-0.8,2.4-0.8s1.7,0.3,2.3,0.8s1.1,1.1,1.4,1.8s0.5,1.4,0.7,2.2c0.2,0.7,0.3,1.3,0.3,1.9
		l0.1,0.8L874.6,335.1L874.6,335.1L874.6,335.1z"/>
	<path class="st14" d="M906.7,341.8c0,0.6,0,1.1-0.2,1.7c-0.2,0.6-0.4,1-0.7,1.4c-0.3,0.4-0.7,0.8-1,1.1c-0.4,0.3-0.8,0.6-1.2,0.8
		c-0.4,0.2-0.7,0.4-1.1,0.5c-0.3,0.1-0.6,0.3-0.8,0.4l-0.3,0.1c-0.1,0.1-0.2,0.2-0.4,0.3c-0.2,0.1-0.6,0.2-1.2,0.5
		c-0.6,0.2-1.4,0.4-2.1,0.5c-0.8,0.1-1.8,0.2-3.1,0.3c-1.3,0.1-2.7,0-4.1-0.2s-2.7-0.8-3.7-1.9s-1.7-2.3-2.1-3.7
		c-0.4-1.4-0.7-2.8-0.8-4.2c-0.2-1.4-0.2-2.6-0.2-3.5v-1.4v-15.2c-4.7-0.2-7.1-1.3-7.1-3.2c0-0.9,0.3-1.7,0.8-2.3
		c0.5-0.6,1.2-1.2,2.1-1.5c0.9-0.3,1.6-0.6,2.3-0.8c0.6-0.1,1.3-0.3,1.9-0.4v-5.8c0-1.4,0.2-2.6,0.6-3.5s1-1.6,1.6-2
		s1.3-0.6,1.9-0.7c0.7-0.1,1.3,0,1.9,0.3c0.6,0.3,1,0.6,1.3,1c0.4,0.6,0.7,3.8,1.1,9.6c6.4-0.3,10.1,0.6,11.1,3
		c0.4,1,0.3,1.8-0.3,2.6c-0.6,0.7-1.6,1.3-3,1.7c-1.3,0.4-2.6,0.7-3.7,0.9c-1.1,0.2-2.3,0.4-3.6,0.5c0.5,9.6,1.1,15.6,1.6,17.9
		c0.2,1,0.6,1.8,0.9,2.4c0.4,0.6,0.8,1,1.2,1.3c0.4,0.2,0.9,0.3,1.3,0.4c0.5,0,0.9,0,1.3-0.2s0.8-0.3,1.2-0.5
		c0.3-0.2,0.6-0.4,0.8-0.5l0.3-0.3c0.1,0,0.3-0.1,0.5-0.1c0.2,0,0.6-0.1,1.2-0.2c0.6-0.1,1.1,0,1.5,0.1c0.5,0.1,0.9,0.4,1.3,0.9
		C906.3,340.4,906.6,341,906.7,341.8z"/>
	<path class="st14" d="M934.5,324.3v19.2c-0.1,1.8-0.4,3.2-1,4.2s-1.2,1.6-1.9,1.7c-0.7,0.1-1.4,0.1-2.1,0s-1.2-0.4-1.7-0.6
		l-0.7-0.4c-0.4,0.4-1.1,0.7-2.2,0.9c-1.1,0.2-2.4,0.3-3.8,0.2c-1.4-0.1-2.9-0.4-4.4-0.9c-1.5-0.6-2.9-1.3-4.1-2.2
		c-1.2-0.9-2.2-2.3-2.9-4c-0.7-1.7-1-3.7-0.9-6c0.1-1.9,0.5-3.6,1.2-5.1c0.6-1.5,1.4-2.7,2.3-3.6c0.9-0.9,1.9-1.7,2.9-2.3
		c1.1-0.6,2.1-1.1,3.1-1.3c1-0.2,2-0.4,2.8-0.5c0.8-0.1,1.5-0.2,2-0.2h0.8c-0.3-1.6-1.1-2.8-2.2-3.4s-2.4-0.9-3.7-0.8
		c-1.4,0.1-2.8,0.4-4.1,0.7c-1.4,0.3-2.6,0.5-3.7,0.4c-1.1,0-1.8-0.4-2.1-1.1c-0.2-0.8-0.3-1.6-0.2-2.4s0.5-1.6,1.3-2.4
		c0.8-0.8,1.7-1.5,2.8-2.1s2.7-1.1,4.6-1.4c1.9-0.4,4.1-0.5,6.4-0.5c1.6,0,3.1,0.3,4.4,0.8s2.4,1.2,3.1,2.1c0.8,0.8,1.4,1.8,2,2.8
		s0.9,2,1.2,3c0.2,1,0.4,1.9,0.5,2.7c0.1,0.8,0.1,1.5,0.1,2v0.5L934.5,324.3L934.5,324.3z M916.8,332.5c-0.7,1.3-0.9,2.6-0.8,4
		s0.6,2.5,1.3,3.5c0.7,1,1.6,1.8,2.7,2.6c1,0.7,2.1,1.1,3.2,1.2c1.1,0,2.1-0.1,3-0.6l-1-11.1c-0.1-0.1-0.2-0.2-0.3-0.4
		c-0.1-0.1-0.4-0.4-0.8-0.8c-0.4-0.4-0.8-0.7-1.2-0.9c-0.4-0.2-0.8-0.4-1.4-0.6c-0.5-0.2-1.1-0.2-1.6-0.1s-1.1,0.4-1.6,0.9
		C917.8,330.8,917.3,331.5,916.8,332.5z"/>
	<path class="st14" d="M958.2,299.1c1,0,1.8,0.2,2.5,0.7c0.7,0.5,1.2,1,1.5,1.5c0.3,0.5,0.6,1.2,0.8,2c0.2,0.7,0.3,1.3,0.3,1.5
		s0,0.5,0,0.7V341c0,0.2,0,0.4,0,0.8c0,0.3-0.1,0.9-0.2,1.7c-0.1,0.8-0.2,1.6-0.4,2.3c-0.2,0.7-0.4,1.4-0.8,2.1s-0.8,1.2-1.3,1.4
		c-0.5,0.3-1.1,0.3-1.9,0c-0.8-0.2-1.7-0.8-2.7-1.7c-0.2,0.1-0.5,0.3-0.8,0.5c-0.3,0.2-1,0.5-2,0.8s-2,0.5-3,0.5s-2.1-0.3-3.4-0.9
		s-2.4-1.6-3.5-3s-2.1-3.4-3.2-6.1c-1.1-2.7-1.9-6-2.5-9.8c0-0.3,0-0.8-0.1-1.3c0-0.5,0-1.5,0.1-3s0.3-2.9,0.5-4.2
		c0.3-1.3,0.8-2.8,1.5-4.4c0.7-1.6,1.7-2.9,2.7-3.9c1.1-1,2.6-1.8,4.5-2.4s4.1-0.7,6.6-0.3c0-0.1,0-0.3,0-0.6c0-0.3,0-0.8,0-1.5
		s0-1.5,0.1-2.2c0-0.7,0.2-1.5,0.4-2.3c0.2-0.8,0.5-1.6,0.8-2.2c0.3-0.6,0.8-1.2,1.4-1.6C956.7,299.3,957.4,299.1,958.2,299.1z
		 M945.2,328.7c0.4,7.7,2.4,11.9,5.9,12.4c1,0.1,1.8,0,2.6-0.4c-0.2-0.6-0.3-2.8-0.4-6.4c0-3.6-0.1-7.1-0.1-10.4v-5
		c0,0-0.1-0.1-0.3-0.2c-0.1-0.1-0.4-0.2-0.8-0.3c-0.4-0.1-0.8-0.2-1.2-0.3c-0.4-0.1-0.8-0.1-1.3,0s-1,0.2-1.4,0.4
		c-0.4,0.2-0.9,0.6-1.3,1.1c-0.4,0.5-0.8,1.2-1,1.9c-0.3,0.7-0.5,1.7-0.6,3C945.2,325.7,945.1,327.2,945.2,328.7z"/>
	<path class="st14" d="M979.3,310.2c1.9,0.1,3.6,0.6,5.1,1.5c1.5,0.8,2.6,1.8,3.5,3s1.6,2.4,2.2,3.8s1,2.7,1.3,4
		c0.2,1.3,0.4,2.5,0.5,3.6s0.1,2,0.1,2.7l-0.1,1c-0.3,3.4-0.9,6.4-1.8,8.9s-1.8,4.5-2.9,5.8c-1,1.3-2.2,2.4-3.5,3.2
		c-1.3,0.8-2.3,1.3-3.2,1.5c-0.8,0.2-1.6,0.3-2.4,0.3c-0.7,0-1.5-0.1-2.3-0.4c-0.8-0.2-1.8-0.8-3-1.7c-1.2-0.9-2.2-2-3.1-3.4
		s-1.6-3.5-2.2-6.2s-0.9-5.8-0.8-9.3c0.1-2.5,0.4-4.8,0.9-6.8c0.5-2.1,1.1-3.7,1.9-5c0.7-1.2,1.5-2.3,2.4-3.2c0.9-0.9,1.7-1.6,2.6-2
		c0.9-0.4,1.7-0.8,2.4-1c0.7-0.2,1.3-0.4,1.7-0.4h0.7V310.2L979.3,310.2z M983.6,328.5c0.1-2,0.1-3.7,0-4.9
		c-0.1-1.3-0.4-2.2-0.9-2.7s-0.9-0.9-1.3-1c-0.4-0.1-1-0.2-1.7-0.1c-0.1,0-0.3-0.1-0.5,0c-0.2,0-0.7,0.2-1.3,0.5s-1.1,0.8-1.6,1.3
		c-0.5,0.6-0.9,1.6-1.4,3s-0.8,3-0.9,4.9c-0.1,2.4-0.1,4.5,0,6.1c0.2,1.6,0.5,2.8,0.9,3.5c0.5,0.7,0.9,1.2,1.4,1.4
		c0.5,0.2,1,0.4,1.8,0.4c0.8,0,1.6-0.4,2.3-1.3c0.7-0.8,1.4-2.2,1.9-4.1C983.1,333.4,983.4,331.1,983.6,328.5z"/>
	<path class="st14" d="M1015.5,331.1c1.2,1.1,2.2,2.3,2.8,3.6c0.6,1.3,1,2.5,1,3.6c0,1.2-0.1,2.1-0.3,2.9c-0.2,0.8-0.4,1.5-0.7,2.3
		c-0.8,1.7-1.8,3.2-3.1,4.3c-1.3,1.1-2.5,1.7-3.7,1.7c-7.6,0-12.6-1.2-15-3.6c-1-1-1.4-2.1-1.3-3.5c0.2-2.3,0.9-3.8,2.2-4.6
		c1-0.6,1.9-0.7,2.9-0.4l0.1,0.1h0.1c0.1,0.1,0.3,0.3,0.5,0.5c0.2,0.2,0.6,0.6,1.2,1.1c0.6,0.5,1.2,1,1.8,1.3
		c0.6,0.4,1.3,0.6,2.1,0.9c0.8,0.3,1.5,0.2,2.3,0c1.1-0.3,1.7-0.7,1.9-1.3c0-0.3,0-0.6-0.1-1s-0.3-0.7-0.5-1
		c-0.2-0.3-0.4-0.6-0.7-0.9c-0.3-0.3-0.5-0.5-0.6-0.6s-0.2-0.2-0.3-0.3c-0.9-0.7-2-1.6-3.4-2.7c-1.3-1.1-3.2-2.8-5.6-5.1
		c-2.4-2.3-3.9-4.1-4.6-5.5c-0.6-1.2-0.9-2.5-0.7-3.9c0.2-1.5,0.7-2.8,1.6-4.1c2.3-3.3,6.2-5,11.6-5c3.7,0,6.3,0.9,7.8,2.7
		c0.6,0.7,1,1.6,1.1,2.7s0.1,1.8,0.1,2.3c-0.1,0.5-0.2,0.8-0.3,1.1h-0.1c-0.7,1.2-1.6,1.8-2.5,2c-1,0.2-2.5-0.2-4.5-1.3
		c-0.8-0.4-1.4-0.7-1.8-0.9c-0.4-0.2-0.9-0.2-1.5-0.2s-1.1,0.3-1.5,0.7c-0.6,0.6-0.8,1.2-0.8,1.8c0,0.4,0.3,0.9,0.8,1.4
		s1,0.9,1.5,1.3s1.4,1,2.7,1.8C1011.2,327.7,1013.7,329.5,1015.5,331.1z"/>
	<path class="st14" d="M1023.2,340.5c1-1,2.3-1.5,3.7-1.5c1.5,0,2.7,0.5,3.7,1.5s1.5,2.3,1.5,3.7c0,1.5-0.5,2.7-1.5,3.7
		s-2.3,1.5-3.7,1.5c-1.5,0-2.7-0.5-3.7-1.5s-1.5-2.3-1.5-3.7S1022.2,341.5,1023.2,340.5z"/>
</g>
</svg>
